<svg width="16" height="16" viewBox="0 0 16 16" fill="none" xmlns="http://www.w3.org/2000/svg">
<g clip-path="url(#clip0_859_7)">
<path d="M11.123 2.25C9.86742 2.25 8.75305 2.74563 7.99805 3.5975C7.24305 2.74563 6.12867 2.25 4.87305 2.25C3.77944 2.25132 2.73099 2.68635 1.95769 3.45965C1.18439 4.23295 0.74937 5.28139 0.748047 6.375C0.748047 10.8962 7.36117 14.5088 7.64242 14.6606C7.75172 14.7195 7.87391 14.7503 7.99805 14.7503C8.12218 14.7503 8.24438 14.7195 8.35367 14.6606C8.63492 14.5088 15.248 10.8962 15.248 6.375C15.2467 5.28139 14.8117 4.23295 14.0384 3.45965C13.2651 2.68635 12.2167 2.25132 11.123 2.25Z" fill="#FF318C"/>
</g>
<defs>
<clipPath id="clip0_859_7">
<rect width="16" height="16" fill="white" transform="translate(-0.00195312)"/>
</clipPath>
</defs>
</svg>
