<svg width="16" height="16" viewBox="0 0 16 16" fill="none" xmlns="http://www.w3.org/2000/svg">
<g clip-path="url(#clip0_648_901)">
<g clip-path="url(#clip1_648_901)">
<path d="M11.123 2.25C9.86742 2.25 8.75305 2.74563 7.99805 3.5975C7.24305 2.74563 6.12867 2.25 4.87305 2.25C3.77944 2.25132 2.73099 2.68635 1.95769 3.45965C1.18439 4.23295 0.74937 5.28139 0.748047 6.375C0.748047 10.8962 7.36117 14.5088 7.64242 14.6606C7.75172 14.7195 7.87391 14.7503 7.99805 14.7503C8.12218 14.7503 8.24438 14.7195 8.35367 14.6606C8.63492 14.5088 15.248 10.8962 15.248 6.375C15.2467 5.28139 14.8117 4.23295 14.0384 3.45965C13.2651 2.68635 12.2167 2.25132 11.123 2.25ZM10.7799 11.1475C9.90946 11.8861 8.97895 12.5509 7.99805 13.135C7.01714 12.5509 6.08663 11.8861 5.21617 11.1475C3.8618 9.98563 2.24805 8.21375 2.24805 6.375C2.24805 5.67881 2.52461 5.01113 3.01689 4.51884C3.50917 4.02656 4.17685 3.75 4.87305 3.75C5.98555 3.75 6.9168 4.3375 7.30367 5.28375C7.35998 5.42169 7.4561 5.53974 7.57977 5.62283C7.70344 5.70592 7.84905 5.7503 7.99805 5.7503C8.14704 5.7503 8.29265 5.70592 8.41632 5.62283C8.53999 5.53974 8.63611 5.42169 8.69242 5.28375C9.0793 4.3375 10.0105 3.75 11.123 3.75C11.8192 3.75 12.4869 4.02656 12.9792 4.51884C13.4715 5.01113 13.748 5.67881 13.748 6.375C13.748 8.21375 12.1343 9.98563 10.7799 11.1475Z" fill="#2E266F"/>
</g>
</g>
<defs>
<clipPath id="clip0_648_901">
<rect width="16" height="16" fill="white" transform="translate(-0.00195312)"/>
</clipPath>
<clipPath id="clip1_648_901">
<rect width="16" height="16" fill="white" transform="translate(-0.00195312)"/>
</clipPath>
</defs>
</svg>
