<svg width="34" height="36" viewBox="0 0 34 36" fill="none" xmlns="http://www.w3.org/2000/svg">
<path d="M0.59375 26.9023C0.59375 28.3113 1.67622 29.2673 3.41833 29.2673H10.3698C10.5221 32.471 13.1606 35.4062 17 35.4062C20.8394 35.4062 23.4779 32.4877 23.6302 29.2673H30.5817C32.3407 29.2673 33.4062 28.3113 33.4062 26.9023C33.4062 25.1244 31.7656 23.598 30.2265 22.122C29.0425 20.9647 28.755 18.65 28.5351 16.3521C28.3152 9.99512 26.4547 5.75155 22.0403 4.15811C21.3976 1.94407 19.5201 0.25 17 0.25C14.4799 0.25 12.6024 1.94407 11.9597 4.15811C7.54526 5.75155 5.68476 9.99512 5.46488 16.3521C5.24501 18.65 4.97439 20.9647 3.77352 22.122C2.25129 23.598 0.59375 25.1244 0.59375 26.9023ZM4.63611 26.1979V25.9966C5.07587 25.5102 6.05686 24.6212 6.88563 23.6651C8.05267 22.3401 8.59391 19.9415 8.76305 16.7547C8.96601 9.94481 11.0633 7.68045 13.8033 6.94244C14.2092 6.8418 14.446 6.64052 14.4799 6.18765C14.5644 4.4768 15.5116 3.33624 17 3.33624C18.4884 3.33624 19.4525 4.4768 19.5201 6.18765C19.554 6.64052 19.7908 6.8418 20.2136 6.94244C22.9367 7.68045 25.0509 9.94481 25.237 16.7547C25.4061 19.9415 25.9642 22.3401 27.1144 23.6651C27.9601 24.6212 28.9072 25.5102 29.3301 25.9966V26.1979H4.63611ZM13.5665 29.2673H20.4335C20.3151 31.364 18.9282 32.7226 17 32.7226C15.0888 32.7226 13.7018 31.364 13.5665 29.2673Z" fill="black"/>
</svg>
