<svg width="36" height="36" viewBox="0 0 36 36" fill="none" xmlns="http://www.w3.org/2000/svg">
<path opacity="0.5" d="M17.8633 35.1104C27.3902 35.1104 35.1133 27.3873 35.1133 17.8604C35.1133 8.33344 27.3902 0.610352 17.8633 0.610352C8.33637 0.610352 0.613281 8.33344 0.613281 17.8604C0.613281 27.3873 8.33637 35.1104 17.8633 35.1104Z" stroke="#A5B5D4"/>
<path d="M24.6133 25.6104H10.6133V14.6104H24.6133M21.6133 7.61035V9.61035H13.6133V7.61035H11.6133V9.61035H10.6133C9.50328 9.61035 8.61328 10.5004 8.61328 11.6104V25.6104C8.61328 26.1408 8.82399 26.6495 9.19907 27.0246C9.57414 27.3996 10.0828 27.6104 10.6133 27.6104H24.6133C25.1437 27.6104 25.6524 27.3996 26.0275 27.0246C26.4026 26.6495 26.6133 26.1408 26.6133 25.6104V11.6104C26.6133 11.0799 26.4026 10.5712 26.0275 10.1961C25.6524 9.82107 25.1437 9.61035 24.6133 9.61035H23.6133V7.61035M22.6133 18.6104H17.6133V23.6104H22.6133V18.6104Z" fill="#586580"/>
</svg>
