<svg width="15" height="13" viewBox="0 0 15 13" fill="none" xmlns="http://www.w3.org/2000/svg">
<path d="M12.6404 1.97452H10.78L9.86518 0.667987C9.81617 0.598027 9.7498 0.540659 9.67195 0.500966C9.59409 0.461273 9.50716 0.44048 9.41886 0.44043H5.1234C5.0351 0.44048 4.94817 0.461273 4.87031 0.500966C4.79246 0.540659 4.72609 0.598027 4.67708 0.667987L3.76161 1.97452H1.90181C1.4746 1.97452 1.06489 2.13615 0.762807 2.42385C0.460724 2.71154 0.291016 3.10174 0.291016 3.50861V10.6677C0.291016 11.0746 0.460724 11.4648 0.762807 11.7525C1.06489 12.0402 1.4746 12.2018 1.90181 12.2018H12.6404C13.0677 12.2018 13.4774 12.0402 13.7795 11.7525C14.0815 11.4648 14.2512 11.0746 14.2512 10.6677V3.50861C14.2512 3.10174 14.0815 2.71154 13.7795 2.42385C13.4774 2.13615 13.0677 1.97452 12.6404 1.97452ZM9.68732 6.83247C9.68732 7.2876 9.54562 7.7325 9.28012 8.11092C9.01463 8.48934 8.63727 8.78428 8.19577 8.95845C7.75427 9.13261 7.26845 9.17818 6.79975 9.08939C6.33106 9.0006 5.90053 8.78144 5.56262 8.45962C5.22471 8.1378 4.99459 7.72778 4.90136 7.2814C4.80813 6.83503 4.85598 6.37235 5.03886 5.95187C5.22173 5.53139 5.53142 5.172 5.92876 4.91915C6.32611 4.6663 6.79325 4.53134 7.27113 4.53134C7.91194 4.53134 8.52651 4.77378 8.97964 5.20533C9.43276 5.63687 9.68732 6.22218 9.68732 6.83247Z" fill="#586580"/>
</svg>
