<svg width="24" height="25" viewBox="0 0 24 25" fill="none" xmlns="http://www.w3.org/2000/svg">
<path opacity="0.5" d="M12.1357 22.1238C17.3322 22.1238 21.5447 17.9113 21.5447 12.7148C21.5447 7.51826 17.3322 3.30566 12.1357 3.30566C6.93916 3.30566 2.72656 7.51826 2.72656 12.7148C2.72656 17.9113 6.93916 22.1238 12.1357 22.1238Z" stroke="#A5B5D4" />
<g clip-path="url(#clip0_1794_5249)">
<path d="M11.9991 12.8057C11.5772 12.8057 11.1725 12.9733 10.8742 13.2716C10.5758 13.57 10.4082 13.9746 10.4082 14.3966C10.4082 14.8185 10.5758 15.2232 10.8742 15.5215C11.1725 15.8199 11.5772 15.9875 11.9991 15.9875C12.421 15.9875 12.8257 15.8199 13.1241 15.5215C13.4224 15.2232 13.59 14.8185 13.59 14.3966C13.59 13.9746 13.4224 13.57 13.1241 13.2716C12.8257 12.9733 12.421 12.8057 11.9991 12.8057ZM11.3173 14.3966C11.3173 14.2157 11.3891 14.0423 11.517 13.9145C11.6449 13.7866 11.8183 13.7148 11.9991 13.7148C12.1799 13.7148 12.3534 13.7866 12.4812 13.9145C12.6091 14.0423 12.6809 14.2157 12.6809 14.3966C12.6809 14.5774 12.6091 14.7508 12.4812 14.8787C12.3534 15.0066 12.1799 15.0784 11.9991 15.0784C11.8183 15.0784 11.6449 15.0066 11.517 14.8787C11.3891 14.7508 11.3173 14.5774 11.3173 14.3966Z" fill="#586580" />
<path d="M14.5111 9.44974L13.0661 7.42383L7.75293 11.6684L7.45838 11.6652V11.6697H7.22656V17.1243H16.772V11.6697H16.3347L15.4647 9.12474L14.5111 9.44974ZM15.3743 11.6697H10.8161L14.2111 10.5125L14.9029 10.2911L15.3743 11.6697ZM13.6129 9.7561L10.1084 10.9506L12.8838 8.73337L13.6129 9.7561ZM8.13565 15.3829V13.4102C8.32742 13.3422 8.50161 13.2323 8.64552 13.0885C8.78942 12.9447 8.89941 12.7706 8.96747 12.5788H15.0311C15.0991 12.7706 15.2091 12.9448 15.353 13.0887C15.4969 13.2326 15.6711 13.3426 15.8629 13.4106V15.3834C15.6711 15.4514 15.4969 15.5614 15.353 15.7053C15.2091 15.8492 15.0991 16.0234 15.0311 16.2152H8.96838C8.90028 16.0232 8.79018 15.8489 8.64612 15.7049C8.50205 15.5609 8.32765 15.4509 8.13565 15.3829Z" fill="#586580" />
</g>
<defs>
<clipPath id="clip0_1794_5249">
<rect width="10.9091" height="10.9091" fill="white" transform="translate(6.54492 7.12402)" />
</clipPath>
</defs>
</svg>