<svg width="16" height="16" viewBox="0 0 16 16" fill="none" xmlns="http://www.w3.org/2000/svg">
<path d="M8 0.000976562C3.581 0.000976562 0 3.58298 0 8.00098C0 12.419 3.581 16.001 8 16.001C12.419 16.001 16 12.419 16 8.00098C16 3.58298 12.419 0.000976562 8 0.000976562ZM11.707 10.294C11.8945 10.4815 11.9998 10.7358 11.9998 11.001C11.9998 11.2662 11.8945 11.5205 11.707 11.708C11.5195 11.8955 11.2652 12.0008 11 12.0008C10.7348 12.0008 10.4805 11.8955 10.293 11.708L8 9.41498L5.707 11.708C5.61435 11.8012 5.50419 11.8751 5.38285 11.9256C5.26152 11.976 5.13141 12.002 5 12.002C4.86859 12.002 4.73848 11.976 4.61715 11.9256C4.49581 11.8751 4.38565 11.8012 4.293 11.708C4.20005 11.6152 4.12632 11.505 4.07601 11.3837C4.0257 11.2624 3.9998 11.1323 3.9998 11.001C3.9998 10.8696 4.0257 10.7396 4.07601 10.6183C4.12632 10.497 4.20005 10.3868 4.293 10.294L6.586 8.00098L4.293 5.70798C4.10549 5.52047 4.00015 5.26615 4.00015 5.00098C4.00015 4.7358 4.10549 4.48148 4.293 4.29398C4.48051 4.10647 4.73482 4.00113 5 4.00113C5.26518 4.00113 5.51949 4.10647 5.707 4.29398L8 6.58698L10.293 4.29398C10.4805 4.10647 10.7348 4.00113 11 4.00113C11.2652 4.00113 11.5195 4.10647 11.707 4.29398C11.8945 4.48148 11.9998 4.7358 11.9998 5.00098C11.9998 5.26615 11.8945 5.52047 11.707 5.70798L9.414 8.00098L11.707 10.294Z" fill="#A5B5D4"/>
</svg>
