<svg width="16" height="16" viewBox="0 0 16 16" fill="none" xmlns="http://www.w3.org/2000/svg">
<path d="M7.99805 14C9.18473 14 10.3448 13.6481 11.3315 12.9888C12.3182 12.3295 13.0872 11.3925 13.5413 10.2961C13.9955 9.19975 14.1143 7.99335 13.8828 6.82946C13.6512 5.66558 13.0798 4.59648 12.2407 3.75736C11.4016 2.91825 10.3325 2.3468 9.16859 2.11529C8.0047 1.88378 6.7983 2.0026 5.70195 2.45673C4.60559 2.91085 3.66852 3.67989 3.00923 4.66658C2.34994 5.65328 1.99805 6.81331 1.99805 8C1.99805 8.992 2.23805 9.92734 2.66471 10.7513L1.99805 14L5.24671 13.3333C6.07071 13.76 7.00671 14 7.99805 14Z" stroke="black" stroke-width="1.66667" stroke-linecap="round" stroke-linejoin="round"/>
</svg>
