<svg xmlns="http://www.w3.org/2000/svg" width="14" height="14" viewBox="0 0 14 14" fill="none">
<path d="M6.99805 13C8.18473 13 9.34477 12.6481 10.3315 11.9888C11.3182 11.3295 12.0872 10.3925 12.5413 9.2961C12.9955 8.19975 13.1143 6.99335 12.8828 5.82946C12.6512 4.66558 12.0798 3.59648 11.2407 2.75736C10.4016 1.91825 9.33247 1.3468 8.16859 1.11529C7.0047 0.88378 5.7983 1.0026 4.70195 1.45673C3.60559 1.91085 2.66852 2.67989 2.00923 3.66658C1.34994 4.65328 0.998047 5.81331 0.998047 7C0.998047 7.992 1.23805 8.92734 1.66471 9.75134L0.998047 13L4.24671 12.3333C5.07071 12.76 6.00671 13 6.99805 13Z" stroke="black" stroke-width="1.66667" stroke-linecap="round" stroke-linejoin="round"/>
</svg>