<svg width="24" height="25" viewBox="0 0 24 25" fill="none" xmlns="http://www.w3.org/2000/svg">
<path opacity="0.5" d="M12.1357 21.8035C17.3322 21.8035 21.5447 17.5909 21.5447 12.3944C21.5447 7.19795 17.3322 2.98535 12.1357 2.98535C6.93916 2.98535 2.72656 7.19795 2.72656 12.3944C2.72656 17.5909 6.93916 21.8035 12.1357 21.8035Z" stroke="#A5B5D4" />
<g clip-path="url(#clip0_1797_6293)">
<path d="M6.98672 10.2579H17.013V9.83323C17.013 8.8929 16.5337 8.41797 15.5794 8.41797H8.42029C7.46613 8.41797 6.98652 8.8929 6.98652 9.83342L6.98672 10.2579ZM6.98672 14.6868C6.98672 15.6273 7.46594 16.0976 8.42029 16.0976H15.5794C16.5335 16.0976 17.0131 15.6273 17.0131 14.6868V11.2945H6.98633L6.98672 14.6868ZM8.51165 13.5727V12.728C8.51165 12.4724 8.6897 12.2897 8.95912 12.2897H10.0777C10.3471 12.2897 10.5252 12.4724 10.5252 12.728V13.5727C10.5252 13.833 10.3471 14.011 10.0777 14.011H8.95893C8.68951 14.011 8.51165 13.833 8.51165 13.5727Z" fill="#586580" />
</g>
<defs>
<clipPath id="clip0_1797_6293">
<rect width="10.9091" height="10.9091" fill="white" transform="translate(6.54492 6.80371)" />
</clipPath>
</defs>
</svg>