<svg width="70" height="71" viewBox="0 0 70 71" fill="none" xmlns="http://www.w3.org/2000/svg">
<path opacity="0.5" d="M35.0986 63.1268C50.127 63.1268 62.3099 50.9439 62.3099 35.9155C62.3099 20.8871 50.127 8.70424 35.0986 8.70424C20.0702 8.70424 7.88733 20.8871 7.88733 35.9155C7.88733 50.9439 20.0702 63.1268 35.0986 63.1268Z" stroke="#A5B5D4" stroke-width="1.57746"/>
<path d="M50.4789 26.0563C50.4789 24.3211 49.0591 22.9014 47.3239 22.9014H22.0845C20.3493 22.9014 18.9296 24.3211 18.9296 26.0563V44.9859C18.9296 46.7211 20.3493 48.1409 22.0845 48.1409H47.3239C49.0591 48.1409 50.4789 46.7211 50.4789 44.9859V26.0563ZM47.3239 26.0563L34.7042 33.9437L22.0845 26.0563H47.3239ZM47.3239 44.9859H22.0845V29.2113L34.7042 37.0986L47.3239 29.2113V44.9859Z" fill="#586580"/>
</svg>
