<svg width="41" height="39" viewBox="0 0 41 39" fill="none" xmlns="http://www.w3.org/2000/svg">
<path d="M25.5082 32.0496C26.2941 32.6913 27.0708 33.2845 27.8287 33.8345C23.8656 36.6902 20.4826 38.27 20.3469 38.3314C20.2107 38.27 16.8326 36.6902 12.8701 33.8345C13.628 33.2883 14.408 32.6913 15.1894 32.0496C16.9688 30.5973 18.7616 28.9174 20.3469 27.0195C21.9363 28.9174 23.7294 30.5973 25.5082 32.0496Z" fill="#2E266F"/>
<path d="M27.8272 0.668945C25.0364 0.668945 22.4569 1.55807 20.3486 3.06915C23.61 5.40474 25.7364 9.22 25.7364 13.5384C25.7364 15.3199 25.4823 17.2719 24.8065 19.3121C24.6697 19.7207 24.5251 20.1203 24.3659 20.5103C23.4016 22.8899 21.9828 25.0665 20.3492 27.02C21.9377 28.9161 23.7288 30.5998 25.5073 32.0501C26.2928 32.6918 27.0737 33.2887 27.8319 33.835C28.59 33.2887 29.3715 32.6918 30.152 32.0501C33.7609 29.105 37.4245 25.2094 39.3265 20.5103C39.4854 20.1206 39.6318 19.7207 39.7674 19.3121C40.4441 17.2719 40.6985 15.3199 40.6985 13.5384C40.6982 6.42921 34.9364 0.668945 27.8272 0.668945Z" fill="#FF318C"/>
<path d="M15.8914 19.3116C15.2147 17.2714 14.9606 15.3194 14.9606 13.538C14.9606 9.2198 17.0875 5.40427 20.3481 3.06867C18.2392 1.55788 15.6565 0.668457 12.866 0.668457C5.76172 0.668457 0 6.42872 0 13.5377C0 15.3191 0.25466 17.2711 0.930164 19.3113C1.0623 19.7199 1.20694 20.1195 1.37138 20.5095C3.27362 25.2087 6.93636 29.1042 10.5461 32.0493C11.3308 32.691 12.1119 33.2879 12.871 33.8342C13.6288 33.2879 14.4091 32.691 15.1903 32.0493C16.9685 30.5993 18.7605 28.9154 20.3484 27.0192C18.715 25.0658 17.2971 22.8891 16.3317 20.5095C16.1682 20.1201 16.0223 19.7202 15.8914 19.3116Z" fill="#07C3F2"/>
<path d="M24.8062 19.3118C25.482 17.2716 25.7361 15.3196 25.7361 13.5381C25.7361 9.21998 23.6095 5.40445 20.3484 3.06885C17.0876 5.40445 14.9609 9.21969 14.9609 13.5381C14.9609 15.3196 15.215 17.2716 15.8917 19.3118C16.0227 19.7204 16.1682 20.12 16.332 20.51C17.2974 22.8895 18.7154 25.0662 20.3487 27.0197C21.9823 25.0662 23.4011 22.8895 24.3653 20.51C24.5251 20.1203 24.6695 19.7204 24.8062 19.3118Z" fill="#FDB60D"/>
</svg>
