<svg width="36" height="36" viewBox="0 0 36 36" fill="none" xmlns="http://www.w3.org/2000/svg">
<path d="M11.0602 0.482422C5.48319 0.482422 0.945312 5.02297 0.945312 10.6014V25.0536C0.945312 30.6314 5.48587 35.1699 11.0644 35.1699H25.5166C31.0943 35.1699 35.6329 30.6294 35.6329 25.0509V10.5974C35.6329 5.02029 31.0922 0.482422 25.5138 0.482422H11.0602ZM28.6953 6.03241C29.4612 6.03241 30.0828 6.65402 30.0828 7.41992C30.0828 8.18582 29.4612 8.80742 28.6953 8.80742C27.9294 8.80742 27.3079 8.18582 27.3079 7.41992C27.3079 6.65402 27.9294 6.03241 28.6953 6.03241ZM18.289 8.80742C23.2632 8.80742 27.3079 12.852 27.3079 17.8262C27.3079 22.8004 23.2626 26.8449 18.289 26.8449C13.3148 26.8449 9.27031 22.7996 9.27031 17.8262C9.27031 12.8527 13.3148 8.80742 18.289 8.80742ZM18.289 11.5825C14.8404 11.5825 12.0453 14.3776 12.0453 17.8262C12.0453 21.2749 14.8404 24.07 18.289 24.07C21.7377 24.07 24.5328 21.2749 24.5328 17.8262C24.5328 14.3776 21.7377 11.5825 18.289 11.5825Z" fill="#B2BEFF"/>
</svg>
