<svg width="35" height="36" viewBox="0 0 35 36" fill="none" xmlns="http://www.w3.org/2000/svg">
<path fill-rule="evenodd" clip-rule="evenodd" d="M0.00781293 3.38041C0.00781293 2.61182 0.313132 1.8747 0.856612 1.33122C1.40009 0.787745 2.1372 0.482426 2.9058 0.482426H31.7942C32.1751 0.481801 32.5523 0.55631 32.9045 0.701686C33.2564 0.847074 33.5764 1.06045 33.8458 1.32965C34.1153 1.59883 34.3291 1.91853 34.4749 2.27043C34.6206 2.62233 34.6955 2.99952 34.6954 3.38041V32.2688C34.6958 32.6498 34.621 33.027 34.4754 33.3791C34.33 33.7311 34.1164 34.0511 33.8471 34.3205C33.5777 34.59 33.258 34.8038 32.906 34.9494C32.554 35.0953 32.1767 35.1702 31.7958 35.1699H2.9058C2.5251 35.1699 2.14813 35.0949 1.79643 34.9492C1.44472 34.8035 1.12518 34.5898 0.856052 34.3205C0.586934 34.0513 0.373502 33.7317 0.227957 33.3798C0.0824127 33.0281 0.00760481 32.6511 0.00781293 32.2704V3.38041ZM13.7377 13.7078H18.4348V16.0665C19.1128 14.7106 20.8471 13.4902 23.4534 13.4902C28.4499 13.4902 29.634 16.1911 29.634 21.1467V30.3263H24.5776V22.2757C24.5776 19.4534 23.8997 17.8608 22.1778 17.8608C19.7892 17.8608 18.7958 19.5779 18.7958 22.2757V30.3263H13.7377V13.7078ZM5.06589 30.1103H10.124V13.4902H5.06589V30.1087V30.1103ZM10.8476 8.06953C10.8573 8.5026 10.7801 8.93323 10.621 9.33612C10.4618 9.73901 10.2239 10.1061 9.92095 10.4157C9.618 10.7254 9.25629 10.9714 8.857 11.1394C8.45771 11.3074 8.02888 11.3939 7.59571 11.3939C7.16253 11.3939 6.73371 11.3074 6.33441 11.1394C5.93512 10.9714 5.5734 10.7254 5.27049 10.4157C4.96757 10.1061 4.72956 9.73901 4.57042 9.33612C4.41128 8.93323 4.33421 8.5026 4.34376 8.06953C4.36248 7.21946 4.71331 6.4105 5.32113 5.81592C5.92896 5.22134 6.74543 4.88839 7.59571 4.88839C8.44598 4.88839 9.26247 5.22134 9.87022 5.81592C10.4781 6.4105 10.8289 7.21946 10.8476 8.06953Z" fill="#B2BEFF"/>
</svg>
