<svg width="41" height="39" viewBox="0 0 41 39" fill="none" xmlns="http://www.w3.org/2000/svg">
<path d="M25.6969 32.1424C26.4884 32.789 27.2712 33.3864 28.0345 33.9408C24.0421 36.8179 20.634 38.4093 20.4973 38.4713C20.36 38.4093 16.9568 36.8179 12.9648 33.9408C13.7281 33.3903 14.5141 32.7892 15.3015 32.1424C17.0941 30.6795 18.9002 28.9872 20.4975 27.0752C22.0986 28.9872 23.9049 30.6795 25.6969 32.1424Z" fill="#2E266F"/>
<path d="M28.0327 0.52832C25.2208 0.52832 22.6223 1.42421 20.498 2.94626C23.7838 5.29914 25.926 9.14276 25.926 13.4933C25.926 15.288 25.6703 17.2543 24.9892 19.3098C24.8512 19.7214 24.7059 20.1243 24.5454 20.5171C23.5736 22.9141 22.1444 25.1071 20.4986 27.0753C22.0989 28.9853 23.9033 30.6816 25.6951 32.1425C26.4867 32.7891 27.2729 33.3903 28.037 33.9409C28.801 33.3904 29.5882 32.7893 30.3743 32.1425C34.0101 29.1755 37.7011 25.2507 39.6171 20.5171C39.777 20.1243 39.9245 19.7214 40.0612 19.3098C40.7428 17.2543 40.9991 15.288 40.9991 13.4933C40.9993 6.33156 35.1948 0.52832 28.0327 0.52832Z" fill="#FF318C"/>
<path d="M16.0092 19.3098C15.3277 17.2543 15.0714 15.288 15.0714 13.4933C15.0714 9.14289 17.2143 5.29914 20.4991 2.94626C18.3745 1.42421 15.7729 0.52832 12.9617 0.52832C5.80431 0.52832 0 6.33142 0 13.4933C0 15.288 0.256464 17.2543 0.936978 19.3098C1.07003 19.7214 1.2158 20.1243 1.38151 20.5171C3.29776 25.2507 6.98798 29.1755 10.6245 32.1425C11.4149 32.7891 12.2019 33.3903 12.9666 33.9409C13.7305 33.3904 14.5161 32.7893 15.303 32.1425C17.0948 30.6816 18.9002 28.9853 20.4993 27.0753C18.8541 25.1071 17.4256 22.9142 16.4528 20.5171C16.288 20.1243 16.1414 19.7212 16.0092 19.3098Z" fill="#07C3F2"/>
<path d="M24.9911 19.3098C25.6722 17.2543 25.9278 15.288 25.9278 13.4933C25.9278 9.14292 23.7858 5.29917 20.4999 2.94629C17.2151 5.29917 15.0723 9.14279 15.0723 13.4933C15.0723 15.288 15.3286 17.2543 16.01 19.3098C16.1423 19.7214 16.2889 20.1243 16.4538 20.5172C17.4266 22.9141 18.8551 25.1071 20.5003 27.0753C22.1462 25.1071 23.5755 22.9142 24.5471 20.5172C24.7077 20.1243 24.853 19.7213 24.9911 19.3098Z" fill="#FDB60D"/>
</svg>
