<svg width="165" height="39" viewBox="0 0 165 39" fill="none" xmlns="http://www.w3.org/2000/svg">
<path d="M25.5073 32.0496C26.2931 32.6913 27.0699 33.2845 27.8277 33.8345C23.8646 36.6902 20.4816 38.27 20.346 38.3314C20.2098 38.27 16.8317 36.6902 12.8691 33.8345C13.627 33.2883 14.407 32.6913 15.1884 32.0496C16.9679 30.5973 18.7607 28.9174 20.346 27.0195C21.9353 28.9174 23.7284 30.5973 25.5073 32.0496Z" fill="#6B57FF"/>
<path d="M27.8262 0.669922C25.0354 0.669922 22.456 1.55904 20.3477 3.07012C23.6091 5.40572 25.7354 9.22097 25.7354 13.5394C25.7354 15.3209 25.4813 17.2729 24.8055 19.3131C24.6687 19.7217 24.5241 20.1213 24.3649 20.5113C23.4007 22.8908 21.9818 25.0675 20.3482 27.021C21.9367 28.9171 23.7278 30.6008 25.5063 32.051C26.2919 32.6928 27.0727 33.2897 27.8309 33.836C28.589 33.2897 29.3705 32.6928 30.1511 32.051C33.7599 29.106 37.4236 25.2104 39.3255 20.5113C39.4844 20.1216 39.6308 19.7217 39.7664 19.3131C40.4431 17.2729 40.6975 15.3209 40.6975 13.5394C40.6972 6.43019 34.9355 0.669922 27.8262 0.669922Z" fill="#FF318C"/>
<path d="M15.8914 19.3121C15.2147 17.2719 14.9606 15.3199 14.9606 13.5384C14.9606 9.22029 17.0875 5.40475 20.3481 3.06916C18.2392 1.55837 15.6565 0.668945 12.866 0.668945C5.76172 0.668945 0 6.42921 0 13.5382C0 15.3196 0.25466 17.2716 0.930164 19.3118C1.0623 19.7204 1.20694 20.12 1.37138 20.51C3.27362 25.2092 6.93636 29.1047 10.5461 32.0498C11.3308 32.6915 12.1119 33.2884 12.871 33.8347C13.6288 33.2884 14.4091 32.6915 15.1903 32.0498C16.9685 30.5998 18.7605 28.9159 20.3484 27.0197C18.715 25.0663 17.2971 22.8896 16.3317 20.51C16.1682 20.1206 16.0223 19.7207 15.8914 19.3121Z" fill="#07C3F2"/>
<path d="M24.8062 19.3123C25.482 17.2721 25.7361 15.3201 25.7361 13.5386C25.7361 9.22047 23.6095 5.40493 20.3484 3.06934C17.0876 5.40493 14.9609 9.22017 14.9609 13.5386C14.9609 15.3201 15.215 17.2721 15.8917 19.3123C16.0227 19.7209 16.1682 20.1205 16.332 20.5105C17.2974 22.89 18.7154 25.0667 20.3487 27.0202C21.9823 25.0667 23.4011 22.89 24.3653 20.5105C24.5251 20.1208 24.6695 19.7209 24.8062 19.3123Z" fill="#FDB60D"/>
<path d="M58.3669 28.1698H57.2968C57.066 28.1698 56.7159 28.1011 56.3608 27.4897C56.0276 26.9175 55.8582 26.1593 55.8582 25.2382V3.50389C55.8582 2.69043 55.5887 2.00648 55.0558 1.47417C54.5226 0.943606 53.8395 0.670898 53.0252 0.670898C52.2114 0.670898 51.5269 0.943901 50.9958 1.47476C50.4626 2.0062 50.1934 2.69014 50.1934 3.50418V25.2385C50.1934 26.8375 50.4859 28.3072 51.0653 29.5974C51.6579 30.9234 52.5083 31.9699 53.5956 32.7121C54.6905 33.4592 55.9362 33.8338 57.2965 33.8338H57.3832C58.3864 33.8338 59.2296 33.5899 59.8894 33.1003C60.6047 32.573 60.9845 31.8454 60.9845 31.0034C60.9845 30.2042 60.745 29.5304 60.2727 29.001C59.7875 28.4556 59.1274 28.1698 58.3669 28.1698Z" fill="#2E266F"/>
<path d="M80.9946 10.5097C79.1151 9.44096 76.9649 8.90137 74.6051 8.90137C72.2174 8.90137 70.0472 9.44096 68.1531 10.5097C66.2537 11.5795 64.7552 13.0845 63.6999 14.9856C62.6507 16.8747 62.1172 19.0578 62.1172 21.4734C62.1172 23.8646 62.6507 26.0326 63.6999 27.9223C64.7558 29.8234 66.254 31.3286 68.1531 32.3988C70.0457 33.4663 72.2157 34.0056 74.6051 34.0056C76.9952 34.0056 79.1588 33.4649 81.0368 32.3988C82.9207 31.3286 84.4117 29.8231 85.4679 27.9223C86.518 26.0311 87.0506 23.8637 87.0506 21.4734C87.0506 19.0578 86.5096 16.873 85.4438 14.9832C84.3748 13.0842 82.878 11.5795 80.9946 10.5097ZM74.6051 28.7684C73.2861 28.7684 72.0891 28.4549 71.0501 27.8379C70.0119 27.2241 69.1857 26.3583 68.5946 25.2654C67.9988 24.1664 67.6961 22.8908 67.6961 21.4731C67.6961 20.0593 67.9988 18.7752 68.5957 17.6576C69.188 16.5525 70.0134 15.6809 71.0504 15.0676C72.0891 14.4512 73.2859 14.1398 74.6049 14.1398C75.9236 14.1398 77.1191 14.4509 78.1599 15.0676C79.1951 15.6803 80.0118 16.5508 80.5892 17.6521C81.1745 18.772 81.4705 20.0567 81.4705 21.4731C81.4705 22.8911 81.1745 24.1682 80.5907 25.2741C80.0141 26.3612 79.196 27.2241 78.1599 27.8379C77.1194 28.4549 75.9238 28.7684 74.6051 28.7684Z" fill="#2E266F"/>
<path d="M110.64 9.44391C110.258 9.25327 109.822 9.15723 109.347 9.15723C108.858 9.15723 108.389 9.28179 107.957 9.52568C107.51 9.77918 107.161 10.1465 106.922 10.6316L100.2 25.2826L93.3935 10.6101C93.1627 10.1508 92.8289 9.78674 92.3981 9.53179C91.9767 9.28441 91.5265 9.15723 91.0617 9.15723C90.6033 9.15723 90.1874 9.25909 89.8533 9.44535C88.5474 10.0996 88.2715 11.097 88.2715 11.8197C88.2715 12.2111 88.3547 12.5775 88.5104 12.8869L97.5737 31.9972C97.8866 32.6247 98.2428 33.0662 98.6593 33.3488C99.088 33.6433 99.6226 33.7926 100.247 33.7926C101.055 33.7926 102.163 33.4763 102.842 31.9838L111.892 12.9009C112.083 12.5187 112.18 12.1398 112.18 11.7754C112.18 11.2684 112.039 10.8007 111.765 10.386C111.492 9.97913 111.109 9.65811 110.64 9.44391Z" fill="#2E266F"/>
<path d="M131.635 10.4544C129.934 9.42437 127.901 8.90137 125.591 8.90137C123.259 8.90137 121.133 9.44271 119.282 10.5114C117.426 11.5824 115.958 13.0976 114.918 15.0126C113.882 16.9137 113.359 19.0901 113.359 21.4731C113.359 23.8669 113.914 26.0416 115.012 27.9345C116.113 29.8324 117.661 31.3362 119.618 32.4023C121.564 33.4678 123.789 34.0053 126.232 34.0053C127.614 34.0053 129.075 33.7463 130.576 33.2405C132.085 32.7367 133.371 32.0606 134.383 31.2591C135.013 30.7861 135.345 30.1499 135.345 29.4212C135.345 28.6691 135.001 27.9968 134.347 27.4526C133.903 27.0509 133.314 26.8452 132.597 26.8452C131.9 26.8452 131.282 27.0556 130.766 27.4575C130.231 27.865 129.528 28.2195 128.679 28.5055C127.832 28.7922 127.009 28.938 126.233 28.938C124.214 28.938 122.564 28.3906 121.183 27.2593C120.019 26.307 119.261 25.1251 118.882 23.6641H134.265C135.016 23.6641 135.654 23.4208 136.157 22.9388C136.666 22.4449 136.925 21.8247 136.925 21.0881C136.925 18.7414 136.471 16.6265 135.572 14.8019C134.663 12.9518 133.338 11.489 131.635 10.4544ZM120.988 15.5033C122.147 14.4827 123.696 13.9681 125.591 13.9681C127.297 13.9681 128.634 14.4626 129.676 15.4795C130.562 16.3427 131.162 17.4757 131.469 18.8567H118.942C119.318 17.4783 119.992 16.3794 120.988 15.5033Z" fill="#2E266F"/>
<path d="M164.195 1.47319C163.664 0.94262 162.967 0.669922 162.124 0.669922C161.313 0.669922 160.625 0.939419 160.08 1.46562C159.527 1.99822 159.249 2.69934 159.249 3.54539V11.7498C158.462 11.0464 157.579 10.4582 156.615 9.99397C155.1 9.26812 153.449 8.90082 151.699 8.90082C149.528 8.90082 147.529 9.45177 145.76 10.5426C143.991 11.6287 142.585 13.1503 141.577 15.061C140.574 16.9615 140.066 19.1056 140.066 21.4333C140.066 23.7654 140.613 25.9133 141.694 27.8219C142.777 29.7294 144.294 31.2559 146.206 32.3505C148.108 33.4483 150.247 34.0057 152.553 34.0057C154.861 34.0057 156.987 33.4474 158.865 32.3505C160.742 31.2562 162.249 29.7297 163.346 27.826C164.443 25.9159 165 23.7674 165 21.4336V3.54627C164.999 2.70429 164.728 2.00579 164.195 1.47319ZM152.553 28.7678C151.263 28.7678 150.083 28.4509 149.046 27.8222C148.005 27.1898 147.169 26.3088 146.564 25.2005C145.953 24.0844 145.643 22.8198 145.643 21.433C145.643 20.0485 145.952 18.788 146.562 17.6882C147.167 16.5916 148.001 15.7173 149.046 15.0837C150.084 14.4565 151.264 14.1395 152.553 14.1395C153.841 14.1395 155.021 14.4565 156.06 15.0837C157.098 15.7147 157.927 16.5881 158.519 17.6821C159.117 18.7848 159.418 20.0462 159.418 21.4333C159.418 22.8204 159.117 24.0885 158.517 25.204C157.926 26.3123 157.095 27.1927 156.06 27.8237C155.022 28.4506 153.843 28.7678 152.553 28.7678Z" fill="#2E266F"/>
</svg>
