<svg width="166" height="39" viewBox="0 0 166 39" fill="none" xmlns="http://www.w3.org/2000/svg">
<rect width="165" height="37.6629" transform="translate(0.550781 0.625)" fill="#2E266F"/>
<path d="M26.058 32.0056C26.8439 32.6474 27.6206 33.2405 28.3785 33.7906C24.4154 36.6463 21.0324 38.226 20.8967 38.2874C20.7605 38.226 17.3824 36.6463 13.4199 33.7906C14.1778 33.2443 14.9578 32.6474 15.7392 32.0056C17.5186 30.5533 19.3114 28.8735 20.8967 26.9756C22.4864 28.8735 24.2792 30.5533 26.058 32.0056Z" fill="#6B57FF"/>
<path d="M28.377 0.625C25.5862 0.625 23.0067 1.51412 20.8984 3.0252C24.1598 5.3608 26.2862 9.17605 26.2862 13.4945C26.2862 15.276 26.0321 17.228 25.3563 19.2682C25.2195 19.6768 25.0749 20.0764 24.9157 20.4664C23.9515 22.8459 22.5326 25.0226 20.899 26.9761C22.4875 28.8722 24.2786 30.5559 26.0571 32.0061C26.8426 32.6479 27.6235 33.2448 28.3817 33.7911C29.1398 33.2448 29.9213 32.6479 30.7018 32.0061C34.3107 29.0611 37.9743 25.1655 39.8763 20.4664C40.0352 20.0767 40.1816 19.6768 40.3172 19.2682C40.9939 17.228 41.2483 15.276 41.2483 13.4945C41.248 6.38527 35.4865 0.625 28.377 0.625Z" fill="#FF318C"/>
<path d="M16.4422 19.2682C15.7655 17.228 15.5114 15.276 15.5114 13.4945C15.5114 9.17634 17.6383 5.36081 20.8989 3.02521C18.79 1.51442 16.2073 0.625 13.4168 0.625C6.3125 0.625 0.550781 6.38526 0.550781 13.4942C0.550781 15.2757 0.805441 17.2277 1.48095 19.2679C1.61308 19.6765 1.75772 20.0761 1.92216 20.4661C3.8244 25.1652 7.48714 29.0608 11.0969 32.0058C11.8816 32.6476 12.6627 33.2445 13.4217 33.7908C14.1796 33.2445 14.9599 32.6476 15.741 32.0058C17.5193 30.5559 19.3112 28.8719 20.8991 26.9758C19.2658 25.0223 17.8479 22.8456 16.8825 20.4661C16.7186 20.0767 16.5731 19.6768 16.4422 19.2682Z" fill="#07C3F2"/>
<path d="M25.357 19.2683C26.0328 17.2282 26.2869 15.2761 26.2869 13.4947C26.2869 9.17652 24.1603 5.36099 20.8992 3.02539C17.6383 5.36099 15.5117 9.17623 15.5117 13.4947C15.5117 15.2761 15.7658 17.2282 16.4425 19.2683C16.5734 19.677 16.719 20.0766 16.8828 20.4665C17.8482 22.8461 19.2661 25.0228 20.8995 26.9762C22.5331 25.0228 23.9519 22.8461 24.9161 20.4665C25.0756 20.0768 25.2202 19.677 25.357 19.2683Z" fill="#FDB60D"/>
<path d="M58.9177 28.1239H57.8476C57.6168 28.1239 57.2666 28.0552 56.9116 27.4438C56.5783 26.8716 56.409 26.1134 56.409 25.1923V3.45799C56.409 2.64453 56.1394 1.96059 55.6065 1.42827C55.0734 0.897707 54.3903 0.625 53.576 0.625C52.7622 0.625 52.0777 0.898003 51.5465 1.42886C51.0134 1.9603 50.7441 2.64424 50.7441 3.45828V25.1926C50.7441 26.7916 51.0366 28.2613 51.6161 29.5515C52.2087 30.8775 53.0591 31.924 54.1464 32.6662C55.2413 33.4133 56.4869 33.7879 57.8473 33.7879H57.934C58.9372 33.7879 59.7804 33.544 60.4401 33.0545C61.1555 32.5271 61.5353 31.7995 61.5353 30.9575C61.5353 30.1583 61.2958 29.4845 60.8235 28.9551C60.3383 28.4097 59.6782 28.1239 58.9177 28.1239Z" fill="white"/>
<path d="M81.5454 10.4638C79.6659 9.39506 77.5157 8.85547 75.1559 8.85547C72.7682 8.85547 70.5979 9.39506 68.7039 10.4638C66.8045 11.5336 65.306 13.0386 64.2507 14.9397C63.2015 16.8288 62.668 19.0119 62.668 21.4275C62.668 23.8187 63.2015 25.9867 64.2507 27.8764C65.3065 29.7775 66.8048 31.2827 68.7039 32.3529C70.5965 33.4204 72.7665 33.9597 75.1559 33.9597C77.5459 33.9597 79.7095 33.419 81.5876 32.3529C83.4715 31.2827 84.9625 29.7772 86.0187 27.8764C87.0688 25.9852 87.6014 23.8179 87.6014 21.4275C87.6014 19.0119 87.0603 16.8271 85.9946 14.9373C84.9259 13.0383 83.4287 11.5336 81.5454 10.4638ZM75.1559 28.7225C73.8369 28.7225 72.6399 28.409 71.6009 27.792C70.5627 27.1782 69.7365 26.3124 69.1454 25.2195C68.5496 24.1205 68.2469 22.8449 68.2469 21.4272C68.2469 20.0134 68.5496 18.7293 69.1465 17.6117C69.7388 16.5066 70.5642 15.635 71.6012 15.0217C72.6399 14.4053 73.8366 14.0939 75.1556 14.0939C76.4743 14.0939 77.6699 14.405 78.7107 15.0217C79.7459 15.6344 80.5626 16.5049 81.14 17.6062C81.7253 18.7261 82.0213 20.0108 82.0213 21.4272C82.0213 22.8452 81.7253 24.1223 81.1415 25.2282C80.5649 26.3153 79.7468 27.1782 78.7107 27.792C77.6702 28.409 76.4749 28.7225 75.1559 28.7225Z" fill="white"/>
<path d="M111.191 9.39898C110.808 9.20835 110.373 9.1123 109.898 9.1123C109.409 9.1123 108.94 9.23687 108.508 9.48076C108.061 9.73426 107.712 10.1016 107.472 10.5867L100.751 25.2377L93.9443 10.5652C93.7135 10.1059 93.3797 9.74182 92.9489 9.48687C92.5275 9.23949 92.0773 9.1123 91.6125 9.1123C91.1541 9.1123 90.7382 9.21417 90.4041 9.40043C89.0982 10.0547 88.8223 11.0521 88.8223 11.7747C88.8223 12.1662 88.9055 12.5326 89.0612 12.842L98.1245 31.9523C98.4374 32.5797 98.7936 33.0213 99.2101 33.3039C99.6388 33.5984 100.173 33.7477 100.797 33.7477C101.606 33.7477 102.714 33.4313 103.393 31.9389L112.443 12.856C112.633 12.4738 112.731 12.0949 112.731 11.7305C112.731 11.2235 112.59 10.7558 112.316 10.3411C112.043 9.93421 111.659 9.61319 111.191 9.39898Z" fill="white"/>
<path d="M132.185 10.4085C130.485 9.37847 128.452 8.85547 126.142 8.85547C123.809 8.85547 121.684 9.39681 119.833 10.4655C117.977 11.5365 116.509 13.0517 115.468 14.9667C114.433 16.8678 113.91 19.0442 113.91 21.4272C113.91 23.8211 114.465 25.9957 115.563 27.8886C116.664 29.7865 118.212 31.2903 120.169 32.3564C122.114 33.4219 124.34 33.9594 126.783 33.9594C128.164 33.9594 129.626 33.7004 131.127 33.1946C132.636 32.6908 133.922 32.0147 134.933 31.2132C135.564 30.7402 135.896 30.104 135.896 29.3753C135.896 28.6232 135.552 27.9509 134.898 27.4067C134.454 27.005 133.865 26.7993 133.148 26.7993C132.451 26.7993 131.832 27.0097 131.317 27.4116C130.782 27.8191 130.079 28.1736 129.23 28.4596C128.383 28.7463 127.56 28.8921 126.783 28.8921C124.764 28.8921 123.115 28.3447 121.734 27.2134C120.569 26.2611 119.812 25.0792 119.433 23.6182H134.816C135.567 23.6182 136.205 23.3749 136.708 22.8929C137.216 22.399 137.476 21.7788 137.476 21.0422C137.476 18.6955 137.022 16.5806 136.123 14.756C135.214 12.9059 133.889 11.4431 132.185 10.4085ZM121.538 15.4574C122.698 14.4368 124.246 13.9222 126.142 13.9222C127.848 13.9222 129.185 14.4167 130.226 15.4336C131.112 16.2968 131.713 17.4298 132.02 18.8108H119.492C119.868 17.4324 120.543 16.3335 121.538 15.4574Z" fill="white"/>
<path d="M164.746 1.42826C164.215 0.897699 163.518 0.625 162.675 0.625C161.863 0.625 161.176 0.894497 160.631 1.4207C160.078 1.9533 159.8 2.65442 159.8 3.50047V11.7049C159.012 11.0014 158.13 10.4133 157.165 9.94905C155.651 9.2232 154 8.8559 152.249 8.8559C150.078 8.8559 148.08 9.40685 146.311 10.4977C144.542 11.5838 143.136 13.1054 142.128 15.0161C141.125 16.9166 140.617 19.0606 140.617 21.3884C140.617 23.7205 141.164 25.8684 142.244 27.777C143.327 29.6845 144.845 31.211 146.756 32.3056C148.659 33.4034 150.798 33.9607 153.104 33.9607C155.412 33.9607 157.537 33.4025 159.416 32.3056C161.293 31.2113 162.8 29.6848 163.897 27.7811C164.994 25.871 165.55 23.7225 165.55 21.3887V3.50135C165.55 2.65937 165.279 1.96087 164.746 1.42826ZM153.104 28.7229C151.814 28.7229 150.634 28.4059 149.597 27.7773C148.556 27.1449 147.72 26.2639 147.115 25.1556C146.504 24.0395 146.194 22.7749 146.194 21.3881C146.194 20.0036 146.503 18.7431 147.113 17.6433C147.718 16.5466 148.552 15.6724 149.597 15.0388C150.635 14.4116 151.815 14.0946 153.104 14.0946C154.392 14.0946 155.572 14.4116 156.611 15.0388C157.649 15.6697 158.478 16.5432 159.07 17.6372C159.668 18.7399 159.969 20.0013 159.969 21.3884C159.969 22.7755 159.668 24.0435 159.069 25.1591C158.477 26.2674 157.647 27.1478 156.611 27.7788C155.573 28.4057 154.394 28.7229 153.104 28.7229Z" fill="white"/>
</svg>
