<svg width="12" height="16" viewBox="0 0 12 16" fill="none" xmlns="http://www.w3.org/2000/svg">
<path d="M5.99982 0.962891C5.22828 0.962891 4.48834 1.26938 3.94278 1.81494C3.39722 2.3605 3.09073 3.10044 3.09073 3.87198C3.09073 4.64352 3.39722 5.38346 3.94278 5.92902C4.48834 6.47458 5.22828 6.78107 5.99982 6.78107C6.77136 6.78107 7.5113 6.47458 8.05686 5.92902C8.60242 5.38346 8.90891 4.64352 8.90891 3.87198C8.90891 3.10044 8.60242 2.3605 8.05686 1.81494C7.5113 1.26938 6.77136 0.962891 5.99982 0.962891ZM9.63619 8.23562H2.36346C1.7848 8.23562 1.22985 8.46549 0.82068 8.87466C0.41151 9.28383 0.181641 9.83878 0.181641 10.4174C0.181641 12.0407 0.849277 13.3411 1.94455 14.2211C3.02237 15.0865 4.46819 15.5083 5.99982 15.5083C7.53146 15.5083 8.97728 15.0865 10.0551 14.2211C11.1489 13.3411 11.818 12.0407 11.818 10.4174C11.818 9.83878 11.5881 9.28383 11.179 8.87466C10.7698 8.46549 10.2148 8.23562 9.63619 8.23562Z" fill="#2E266F"/>
</svg>
