<svg width="18" height="19" viewBox="0 0 18 19" fill="none" xmlns="http://www.w3.org/2000/svg">
<g clip-path="url(#clip0_96_563)">
<path d="M0.273438 7.65137V14.6332C0.273438 15.0961 0.457333 15.5401 0.784669 15.8674C1.11201 16.1947 1.55597 16.3786 2.01889 16.3786H15.9825C16.4454 16.3786 16.8894 16.1947 17.2167 15.8674C17.5441 15.5401 17.728 15.0961 17.728 14.6332V7.65137L9.00071 11.1423L0.273438 7.65137Z" fill="#2E266F"/>
<path d="M2.01889 2.41504C1.55597 2.41504 1.11201 2.59893 0.784669 2.92627C0.457333 3.25361 0.273438 3.69757 0.273438 4.16049L0.273438 5.90595L9.00071 9.39686L17.728 5.90595V4.16049C17.728 3.69757 17.5441 3.25361 17.2167 2.92627C16.8894 2.59893 16.4454 2.41504 15.9825 2.41504H2.01889Z" fill="#2E266F"/>
</g>
<defs>
<clipPath id="clip0_96_563">
<rect width="17.4545" height="17.4545" fill="white" transform="translate(0.273438 0.669922)"/>
</clipPath>
</defs>
</svg>
