<svg width="75" height="17" viewBox="0 0 75 17" fill="none" xmlns="http://www.w3.org/2000/svg">
<path d="M11.5137 14.1646C11.8684 14.4542 12.219 14.722 12.5611 14.9702C10.7723 16.2592 9.24525 16.9723 9.18403 17C9.12255 16.9723 7.59777 16.2592 5.8092 14.9702C6.15129 14.7237 6.50335 14.4542 6.85607 14.1646C7.65925 13.509 8.46848 12.7508 9.18403 11.8941C9.90143 12.7508 10.7108 13.509 11.5137 14.1646Z" fill="#A157FF"/>
<path d="M12.5603 0.000137329C11.3006 0.000137329 10.1363 0.401462 9.18469 1.08352C10.6568 2.13775 11.6166 3.85984 11.6166 5.80907C11.6166 6.61318 11.5019 7.49425 11.1968 8.41514C11.1351 8.59958 11.0698 8.77995 10.998 8.95598C10.5627 10.03 9.92232 11.0125 9.18495 11.8943C9.90196 12.7501 10.7104 13.5101 11.5132 14.1647C11.8677 14.4544 12.2202 14.7238 12.5624 14.9704C12.9046 14.7238 13.2573 14.4544 13.6097 14.1647C15.2386 12.8354 16.8923 11.077 17.7508 8.95598C17.8225 8.78008 17.8886 8.59958 17.9498 8.41514C18.2552 7.49425 18.37 6.61318 18.37 5.80907C18.3699 2.60016 15.7692 0.000137329 12.5603 0.000137329Z" fill="#FF318C"/>
<path d="M7.17293 8.41501C6.8675 7.49412 6.75281 6.61304 6.75281 5.80894C6.75281 3.85984 7.71285 2.13761 9.18456 1.08339C8.23267 0.40146 7.06691 0 5.80736 0C2.60068 0 0 2.60002 0 5.80881C0 6.61291 0.114946 7.49399 0.41985 8.41487C0.479491 8.59931 0.54478 8.77968 0.619002 8.95572C1.47762 11.0768 3.13088 12.8351 4.76023 14.1644C5.1144 14.4541 5.46699 14.7235 5.8096 14.9701C6.15168 14.7235 6.50387 14.4541 6.85646 14.1644C7.65912 13.51 8.46795 12.7499 9.18469 11.894C8.44745 11.0123 7.80743 10.0298 7.37168 8.95572C7.29786 8.77995 7.23204 8.59945 7.17293 8.41501Z" fill="#07C3F2"/>
<path d="M11.1967 8.41501C11.5017 7.49412 11.6164 6.61304 11.6164 5.80894C11.6164 3.85984 10.6565 2.13761 9.18455 1.08339C7.71271 2.13761 6.75281 3.85971 6.75281 5.80894C6.75281 6.61304 6.86749 7.49412 7.17292 8.41501C7.23204 8.59945 7.29772 8.77981 7.37168 8.95584C7.80743 10.0299 8.44745 11.0124 9.18468 11.8941C9.92205 11.0124 10.5625 10.0299 10.9977 8.95584C11.0698 8.77994 11.135 8.59945 11.1967 8.41501Z" fill="#FDB60D"/>
<path d="M26.3454 12.4125H25.8623C25.7581 12.4125 25.6001 12.3815 25.4398 12.1055C25.2894 11.8472 25.213 11.505 25.213 11.0893V1.27899C25.213 0.911819 25.0913 0.603106 24.8508 0.362835C24.6101 0.123352 24.3018 0.000259399 23.9342 0.000259399C23.5669 0.000259399 23.258 0.123485 23.0182 0.3631C22.7775 0.602977 22.656 0.911689 22.656 1.27912V11.0894C22.656 11.8111 22.7881 12.4745 23.0496 13.0569C23.3171 13.6554 23.7009 14.1278 24.1917 14.4628C24.6859 14.8 25.2482 14.9691 25.8622 14.9691H25.9013C26.3542 14.9691 26.7347 14.859 27.0325 14.638C27.3554 14.4 27.5269 14.0716 27.5269 13.6915C27.5269 13.3308 27.4188 13.0267 27.2056 12.7877C26.9866 12.5415 26.6886 12.4125 26.3454 12.4125Z" fill="#2E266F"/>
<path d="M36.5589 4.44127C35.7105 3.95889 34.74 3.71533 33.6749 3.71533C32.5971 3.71533 31.6175 3.95889 30.7626 4.44127C29.9053 4.92418 29.2289 5.60348 28.7525 6.46157C28.2789 7.31428 28.0381 8.29967 28.0381 9.39002C28.0381 10.4693 28.2789 11.4479 28.7525 12.3009C29.2291 13.1589 29.9054 13.8384 30.7626 14.3214C31.6169 14.8033 32.5963 15.0467 33.6749 15.0467C34.7537 15.0467 35.7302 14.8026 36.578 14.3214C37.4283 13.8384 38.1013 13.1588 38.578 12.3009C39.052 11.4472 39.2924 10.4689 39.2924 9.39002C39.2924 8.29967 39.0482 7.31349 38.5671 6.46052C38.0846 5.60335 37.409 4.92418 36.5589 4.44127ZM33.6749 12.6827C33.0795 12.6827 32.5392 12.5413 32.0702 12.2628C31.6016 11.9857 31.2287 11.5949 30.9619 11.1016C30.693 10.6056 30.5563 10.0298 30.5563 9.38988C30.5563 8.7517 30.693 8.1721 30.9624 7.66765C31.2297 7.16885 31.6023 6.77541 32.0703 6.49862C32.5392 6.22038 33.0794 6.07982 33.6747 6.07982C34.27 6.07982 34.8096 6.22025 35.2794 6.49862C35.7467 6.77514 36.1153 7.16807 36.3759 7.66516C36.6401 8.17066 36.7737 8.75052 36.7737 9.38988C36.7737 10.0299 36.6401 10.6063 36.3766 11.1055C36.1163 11.5962 35.7471 11.9857 35.2794 12.2628C34.8097 12.5413 34.2701 12.6827 33.6749 12.6827Z" fill="#2E266F"/>
<path d="M49.9404 3.96047C49.7676 3.87442 49.5711 3.83107 49.3569 3.83107C49.136 3.83107 48.9244 3.88729 48.7292 3.99738C48.5277 4.1118 48.3702 4.27759 48.2619 4.49658L45.228 11.1096L42.1557 4.48686C42.0515 4.27956 41.9008 4.11522 41.7064 4.00014C41.5162 3.88848 41.313 3.83107 41.1032 3.83107C40.8963 3.83107 40.7085 3.87705 40.5577 3.96112C39.9683 4.25644 39.8438 4.70664 39.8438 5.03282C39.8438 5.20951 39.8813 5.3749 39.9516 5.51454L44.0425 14.1404C44.1837 14.4236 44.3445 14.6229 44.5325 14.7505C44.726 14.8834 44.9673 14.9508 45.249 14.9508C45.6139 14.9508 46.114 14.808 46.4204 14.1344L50.5054 5.52085C50.5914 5.34837 50.6355 5.17732 50.6355 5.01285C50.6355 4.78401 50.5717 4.5729 50.4481 4.38571C50.3249 4.20205 50.1518 4.05716 49.9404 3.96047Z" fill="#2E266F"/>
<path d="M59.4165 4.41631C58.649 3.9514 57.7312 3.71533 56.6885 3.71533C55.6357 3.71533 54.6765 3.95968 53.8408 4.44206C53.0031 4.92549 52.3406 5.60939 51.8709 6.47379C51.4034 7.33188 51.1675 8.31425 51.1675 9.38988C51.1675 10.4704 51.418 11.452 51.9137 12.3064C52.4106 13.163 53.1093 13.8418 53.9927 14.323C54.8706 14.8039 55.8753 15.0466 56.9779 15.0466C57.6015 15.0466 58.2612 14.9297 58.9387 14.7013C59.6197 14.4739 60.2001 14.1688 60.6568 13.807C60.9414 13.5935 61.0911 13.3063 61.0911 12.9774C61.0911 12.6379 60.936 12.3345 60.6408 12.0888C60.4402 11.9075 60.1746 11.8147 59.851 11.8147C59.5361 11.8147 59.2571 11.9096 59.0245 12.0911C58.7829 12.275 58.4658 12.435 58.0826 12.5641C57.7002 12.6935 57.3286 12.7593 56.9782 12.7593C56.0669 12.7593 55.3223 12.5122 54.6991 12.0016C54.1733 11.5718 53.8315 11.0383 53.6605 10.3788H60.6039C60.9428 10.3788 61.2307 10.269 61.4577 10.0515C61.6873 9.82852 61.8045 9.54858 61.8045 9.21608C61.8045 8.15687 61.5995 7.20222 61.1936 6.37868C60.7835 5.54358 60.1855 4.88332 59.4165 4.41631ZM54.6107 6.69527C55.134 6.23457 55.833 6.00231 56.6886 6.00231C57.4587 6.00231 58.0621 6.2255 58.5322 6.6845C58.9321 7.07414 59.2033 7.58555 59.3419 8.20889H53.6871C53.857 7.58673 54.1614 7.09069 54.6107 6.69527Z" fill="#2E266F"/>
<path d="M74.1136 0.362709C73.8738 0.123226 73.5591 0.000137329 73.1787 0.000137329C72.8124 0.000137329 72.502 0.121781 72.2561 0.359293C72.0066 0.599696 71.8811 0.916159 71.8811 1.29804V5.00129C71.5255 4.68378 71.1272 4.41829 70.6919 4.20876C70.0084 3.88112 69.2631 3.71534 68.4729 3.71534C67.4929 3.71534 66.5908 3.96402 65.7923 4.45638C64.9941 4.94665 64.3594 5.63344 63.9042 6.49586C63.4515 7.35369 63.2224 8.32148 63.2224 9.37215C63.2224 10.4248 63.4693 11.3943 63.9569 12.2558C64.4457 13.1168 65.1308 13.8058 65.9935 14.2999C66.8521 14.7954 67.8178 15.047 68.8588 15.047C69.9004 15.047 70.8598 14.795 71.7076 14.2999C72.5551 13.8059 73.2353 13.1169 73.7304 12.2576C74.2254 11.3955 74.4766 10.4257 74.4766 9.37229V1.29844C74.4763 0.918395 74.354 0.603111 74.1136 0.362709ZM68.8585 12.6827C68.2764 12.6827 67.7437 12.5397 67.2757 12.2559C66.8055 11.9705 66.4282 11.5728 66.1552 11.0726C65.8796 10.5688 65.7397 9.99799 65.7397 9.37202C65.7397 8.74711 65.8791 8.17816 66.1542 7.68172C66.4273 7.18673 66.804 6.7921 67.2755 6.50611C67.7441 6.22301 68.2768 6.07995 68.8584 6.07995C69.4401 6.07995 69.9725 6.22301 70.4415 6.50611C70.9099 6.79092 71.2842 7.18515 71.5514 7.67896C71.8214 8.17671 71.9571 8.74606 71.9571 9.37215C71.9571 9.99825 71.8214 10.5706 71.5508 11.0741C71.2838 11.5744 70.9089 11.9718 70.4415 12.2566C69.9732 12.5396 69.441 12.6827 68.8585 12.6827Z" fill="#2E266F"/>
</svg>
