<svg width="62" height="63" viewBox="0 0 62 63" fill="none" xmlns="http://www.w3.org/2000/svg">
<rect x="0.529412" y="1.02941" width="60.9412" height="60.9412" rx="30.4706" stroke="#A2AEBA" stroke-width="1.05882"/>
<g clip-path="url(#clip0_465_2515)">
<path d="M14.5938 39.4023C14.5938 40.8113 15.6762 41.7673 17.4183 41.7673H24.3698C24.5221 44.971 27.1606 47.9062 31 47.9062C34.8394 47.9062 37.4779 44.9877 37.6302 41.7673H44.5817C46.3407 41.7673 47.4062 40.8113 47.4062 39.4023C47.4062 37.6244 45.7656 36.098 44.2265 34.622C43.0425 33.4647 42.755 31.15 42.5351 28.8521C42.3152 22.4951 40.4547 18.2516 36.0403 16.6581C35.3976 14.4441 33.5201 12.75 31 12.75C28.4799 12.75 26.6024 14.4441 25.9597 16.6581C21.5453 18.2516 19.6848 22.4951 19.4649 28.8521C19.245 31.15 18.9744 33.4647 17.7735 34.622C16.2513 36.098 14.5938 37.6244 14.5938 39.4023ZM18.6361 38.6979V38.4966C19.0759 38.0102 20.0569 37.1212 20.8856 36.1651C22.0527 34.8401 22.5939 32.4415 22.763 29.2547C22.966 22.4448 25.0633 20.1804 27.8033 19.4424C28.2092 19.3418 28.446 19.1405 28.4799 18.6876C28.5644 16.9768 29.5116 15.8362 31 15.8362C32.4884 15.8362 33.4525 16.9768 33.5201 18.6876C33.554 19.1405 33.7908 19.3418 34.2136 19.4424C36.9367 20.1804 39.0509 22.4448 39.237 29.2547C39.4061 32.4415 39.9642 34.8401 41.1144 36.1651C41.9601 37.1212 42.9072 38.0102 43.3301 38.4966V38.6979H18.6361ZM27.5665 41.7673H34.4335C34.3151 43.864 32.9282 45.2226 31 45.2226C29.0888 45.2226 27.7018 43.864 27.5665 41.7673Z" fill="black"/>
</g>
<defs>
<clipPath id="clip0_465_2515">
<rect width="37.5" height="37.5" fill="white" transform="translate(12.25 12.75)"/>
</clipPath>
</defs>
</svg>
