<svg width="20" height="20" viewBox="0 0 20 20" fill="none" xmlns="http://www.w3.org/2000/svg">
<path d="M2.92849 2.92991C-0.977392 6.83579 -0.976508 13.167 2.92849 17.072C6.83349 20.977 13.1647 20.9779 17.0706 17.072C20.9765 13.1662 20.9756 6.83491 17.0706 2.92991C13.1656 -0.975088 6.83437 -0.975972 2.92849 2.92991ZM15.3029 8.75117C15.6343 8.75117 15.9522 8.88284 16.1866 9.11723C16.421 9.35161 16.5527 9.66951 16.5527 10.001C16.5527 10.3324 16.421 10.6503 16.1866 10.8847C15.9522 11.1191 15.6343 11.2508 15.3029 11.2508H11.2494V15.3043C11.2498 15.4685 11.2178 15.6313 11.1552 15.7831C11.0925 15.935 11.0005 16.0729 10.8844 16.1891C10.7682 16.3052 10.6302 16.3973 10.4784 16.4599C10.3265 16.5226 10.1638 16.5546 9.99956 16.5541C9.83539 16.5542 9.67281 16.522 9.52111 16.4592C9.36941 16.3965 9.23158 16.3044 9.1155 16.1883C8.99941 16.0723 8.90736 15.9344 8.8446 15.7827C8.78184 15.631 8.74961 15.4684 8.74975 15.3043V11.2508H4.69626C4.36479 11.2508 4.04689 11.1191 3.81251 10.8847C3.57812 10.6503 3.44645 10.3324 3.44645 10.001C3.44645 9.66951 3.57812 9.35161 3.81251 9.11723C4.04689 8.88284 4.36479 8.75117 4.69626 8.75117H8.74975V4.69768C8.74975 4.36621 8.88142 4.04831 9.11581 3.81393C9.35019 3.57954 9.66809 3.44786 9.99956 3.44786C10.331 3.44786 10.6489 3.57954 10.8833 3.81393C11.1177 4.04831 11.2494 4.36621 11.2494 4.69768V8.75117H15.3029Z" fill="#FF318C"/>
</svg>
