<svg width="18" height="18" viewBox="0 0 18 18" fill="none" xmlns="http://www.w3.org/2000/svg">
<path d="M6.5 0.397461C8.22391 0.397461 9.87721 1.08228 11.0962 2.30127C12.3152 3.52025 13 5.17355 13 6.89746C13 8.50746 12.41 9.98746 11.44 11.1275L11.71 11.3975H12.5L17.5 16.3975L16 17.8975L11 12.8975V12.1075L10.73 11.8375C9.55055 12.8442 8.05071 13.3974 6.5 13.3975C4.77609 13.3975 3.12279 12.7126 1.90381 11.4937C0.684819 10.2747 0 8.62137 0 6.89746C0 5.17355 0.684819 3.52025 1.90381 2.30127C3.12279 1.08228 4.77609 0.397461 6.5 0.397461ZM6.5 2.39746C4 2.39746 2 4.39746 2 6.89746C2 9.39746 4 11.3975 6.5 11.3975C9 11.3975 11 9.39746 11 6.89746C11 4.39746 9 2.39746 6.5 2.39746Z" fill="#2E266F"/>
</svg>
