<svg width="51" height="48" viewBox="0 0 51 48" fill="none" xmlns="http://www.w3.org/2000/svg">
<path d="M34.1552 0.611328C31.0733 0.611328 28.1051 1.4519 25.4988 3.04992C22.8909 1.45207 19.9208 0.611328 16.8377 0.611328C7.67619 0.611328 0.222656 8.06686 0.222656 17.231C0.222656 19.6886 0.611291 22.1185 1.38173 24.4643C1.58696 25.0757 1.75971 25.5401 1.93162 25.9474C3.92277 30.8706 7.66836 35.5977 13.0591 39.9936C13.9265 40.7061 14.8609 41.4237 15.8362 42.1267L16.8422 42.852L16.8437 42.851C21.1818 45.8424 24.745 47.4851 24.7825 47.5023L25.5024 47.8314L26.2207 47.4984C26.3783 47.4255 29.9352 45.7568 34.1564 42.8513L34.1584 42.8528L35.166 42.1273C36.091 41.461 37.0234 40.7437 37.9338 39.9977C43.3278 35.6012 47.0738 30.8741 49.0706 25.9409C49.271 25.4395 49.4534 24.9389 49.6115 24.4578C50.3851 22.1249 50.7772 19.6934 50.7772 17.231C50.7772 8.06703 43.3205 0.611328 34.1552 0.611328ZM25.4988 7.30975C28.3427 9.79648 30.014 13.4188 30.014 17.23C30.014 19.3293 29.6805 21.3949 29.0235 23.3796C28.8651 23.8546 28.7135 24.2724 28.5584 24.6532C27.8204 26.4626 26.7961 28.2689 25.4988 30.0482C24.2048 28.2689 23.1736 26.4562 22.429 24.6331C22.2739 24.2658 22.1258 23.858 21.9707 23.3761C21.3171 21.3947 20.9834 19.326 20.9834 17.2299C20.9834 13.4155 22.6547 9.79648 25.4988 7.30975ZM16.8387 38.5935C16.2861 38.1722 15.7504 37.7511 15.2382 37.3331C10.2947 33.303 6.89159 29.0372 5.11233 24.6331C4.96407 24.2859 4.81915 23.895 4.6474 23.3796C3.99357 21.3916 3.6634 19.3226 3.6634 17.23C3.6634 9.96506 9.57372 4.05141 16.8389 4.05141C18.837 4.05141 20.7745 4.49618 22.5436 5.34858C19.3761 8.452 17.543 12.7383 17.543 17.23C17.543 19.6966 17.934 22.126 18.7021 24.441C18.8808 25.0071 19.0662 25.5091 19.2548 25.9541C20.1981 28.2689 21.5426 30.5636 23.2577 32.7943C21.8493 34.3476 20.2351 35.8707 18.4359 37.3331C17.9101 37.7646 17.3744 38.1858 16.8387 38.5935ZM25.4953 44.0254C24.4408 43.4896 22.3177 42.3574 19.7737 40.6692C19.7737 40.6692 19.7634 40.6761 19.7399 40.6896C20.0332 40.4603 20.3262 40.2346 20.6126 39.9987C22.4122 38.533 24.0497 37.0033 25.4986 35.4397C26.9509 37.0066 28.5852 38.533 30.3814 39.9956C30.6576 40.2211 30.9373 40.4437 31.2239 40.6694C28.6898 42.3474 26.5602 43.4863 25.4953 44.0254ZM46.3435 23.3796C46.2085 23.7973 46.0503 24.2288 45.8784 24.6567C44.1059 29.0405 40.6993 33.3067 35.7559 37.3333C35.2303 37.7679 34.6944 38.1858 34.1622 38.5936C33.6098 38.1757 33.0737 37.7544 32.5548 37.3301C30.7656 35.871 29.1516 34.3513 27.7398 32.7944C29.4551 30.5637 30.7994 28.2656 31.7462 25.9507C31.9317 25.4958 32.1104 25.0072 32.2888 24.4578C33.0604 22.1295 33.4547 19.6966 33.4547 17.23C33.4547 12.7383 31.6216 8.452 28.4508 5.34858C30.2234 4.49618 32.1575 4.05141 34.1555 4.05141C41.424 4.05141 47.3376 9.96506 47.3376 17.23C47.3373 19.326 47.0038 21.3916 46.3435 23.3796Z" fill="#2E266F"/>
</svg>
