<svg width="47" height="45" viewBox="0 0 47 45" fill="none" xmlns="http://www.w3.org/2000/svg">
<path d="M31.4916 0.700378C28.646 0.700378 25.9054 1.47649 23.4989 2.95197C21.0911 1.47665 18.3487 0.700378 15.502 0.700378C7.043 0.700378 0.161011 7.58421 0.161011 16.0457C0.161011 18.3148 0.519845 20.5584 1.23121 22.7243C1.4207 23.2888 1.5802 23.7176 1.73893 24.0937C3.57739 28.6393 7.03577 33.0039 12.0132 37.0628C12.814 37.7206 13.6767 38.3832 14.5773 39.0323L15.5061 39.702L15.5075 39.701C19.513 42.4631 22.8029 43.9798 22.8376 43.9957L23.5023 44.2996L24.1655 43.9921C24.311 43.9248 27.5951 42.3841 31.4926 39.7013L31.4945 39.7027L32.4249 39.0329C33.279 38.4177 34.1398 37.7554 34.9804 37.0666C39.9608 33.0071 43.4195 28.6425 45.2632 24.0877C45.4483 23.6247 45.6167 23.1625 45.7626 22.7183C46.4769 20.5642 46.839 18.3192 46.839 16.0457C46.839 7.58437 39.9541 0.700378 31.4916 0.700378ZM23.4989 6.88516C26.1247 9.1812 27.6679 12.5258 27.6679 16.0447C27.6679 17.983 27.36 19.8902 26.7534 21.7227C26.6071 22.1614 26.4671 22.5471 26.3239 22.8987C25.6425 24.5694 24.6968 26.2371 23.4989 27.88C22.3041 26.2371 21.3521 24.5634 20.6645 22.8801C20.5214 22.541 20.3846 22.1644 20.2414 21.7195C19.6379 19.8901 19.3298 17.9799 19.3298 16.0446C19.3298 12.5227 20.873 9.1812 23.4989 6.88516ZM15.5029 35.77C14.9927 35.381 14.4981 34.9922 14.0251 34.6063C9.46071 30.8852 6.31856 26.9465 4.67574 22.8801C4.53885 22.5596 4.40504 22.1986 4.24646 21.7227C3.64276 19.8872 3.33792 17.9769 3.33792 16.0447C3.33792 9.33686 8.79503 3.87667 15.5031 3.87667C17.348 3.87667 19.1369 4.28734 20.7704 5.07437C17.8457 7.93982 16.1532 11.8975 16.1532 16.0447C16.1532 18.3222 16.5142 20.5653 17.2234 22.7028C17.3884 23.2254 17.5596 23.689 17.7337 24.0998C18.6048 26.2371 19.8461 28.3558 21.4297 30.4155C20.1293 31.8497 18.6389 33.256 16.9776 34.6063C16.4922 35.0047 15.9976 35.3936 15.5029 35.77ZM23.4957 40.7854C22.5221 40.2907 20.5618 39.2453 18.2128 37.6866C18.2128 37.6866 18.2033 37.6929 18.1816 37.7054C18.4525 37.4937 18.723 37.2853 18.9874 37.0675C20.649 35.7142 22.1609 34.3018 23.4988 32.8581C24.8397 34.3048 26.3487 35.7142 28.0072 37.0646C28.2622 37.2729 28.5205 37.4784 28.785 37.6868C26.4453 39.2361 24.479 40.2877 23.4957 40.7854ZM42.7452 21.7227C42.6207 22.1085 42.4745 22.5068 42.3158 22.902C40.6793 26.9496 37.5339 30.8886 32.9695 34.6064C32.4842 35.0077 31.9894 35.3936 31.498 35.7702C30.988 35.3843 30.493 34.9953 30.0139 34.6035C28.3619 33.2563 26.8716 31.8531 25.5681 30.4156C27.1519 28.356 28.3931 26.2341 29.2673 24.0967C29.4385 23.6767 29.6036 23.2256 29.7683 22.7183C30.4807 20.5685 30.8448 18.3222 30.8448 16.0447C30.8448 11.8975 29.1523 7.93982 26.2246 5.07437C27.8612 4.28734 29.6471 3.87667 31.4919 3.87667C38.203 3.87667 43.6632 9.33686 43.6632 16.0447C43.6629 17.9799 43.3549 19.8872 42.7452 21.7227Z" fill="#2E266F"/>
</svg>
