<svg width="57" height="57" viewBox="0 0 57 57" fill="none" xmlns="http://www.w3.org/2000/svg">
<path opacity="0.5" d="M28.098 55.3097C43.1264 55.3097 55.3093 43.1268 55.3093 28.0985C55.3093 13.0701 43.1264 0.887207 28.098 0.887207C13.0696 0.887207 0.886719 13.0701 0.886719 28.0985C0.886719 43.1268 13.0696 55.3097 28.098 55.3097Z" stroke="#A5B5D4" stroke-width="1.57746"/>
<path d="M26.1249 35.5913H19.8151C17.6329 35.5913 15.7731 34.822 14.2356 33.2835C12.6981 31.7449 11.9288 29.8851 11.9277 27.704C11.9267 25.5229 12.696 23.663 14.2356 22.1245C15.7752 20.5859 17.635 19.8167 19.8151 19.8167H26.1249V22.9716H19.8151C18.5005 22.9716 17.3831 23.4317 16.4629 24.3519C15.5428 25.272 15.0827 26.3894 15.0827 27.704C15.0827 29.0185 15.5428 30.1359 16.4629 31.0561C17.3831 31.9763 18.5005 32.4364 19.8151 32.4364H26.1249V35.5913ZM21.3925 29.2814V26.1265H34.0122V29.2814H21.3925ZM29.2798 35.5913V32.4364H35.5897C36.9043 32.4364 38.0216 31.9763 38.9418 31.0561C39.862 30.1359 40.3221 29.0185 40.3221 27.704C40.3221 26.3894 39.862 25.272 38.9418 24.3519C38.0216 23.4317 36.9043 22.9716 35.5897 22.9716H29.2798V19.8167H35.5897C37.7719 19.8167 39.6322 20.5859 41.1708 22.1245C42.7093 23.663 43.4781 25.5229 43.477 27.704C43.476 29.8851 42.7067 31.7454 41.1692 33.285C39.6317 34.8247 37.7719 35.5934 35.5897 35.5913H29.2798Z" fill="#586580"/>
</svg>
