<svg width="70" height="71" viewBox="0 0 70 71" fill="none" xmlns="http://www.w3.org/2000/svg">
<path d="M35.0986 62.9437C50.127 62.9437 62.3099 50.7608 62.3099 35.7324C62.3099 20.704 50.127 8.52115 35.0986 8.52115C20.0702 8.52115 7.88733 20.704 7.88733 35.7324C7.88733 50.7608 20.0702 62.9437 35.0986 62.9437Z" fill="#1877F2"/>
<g clip-path="url(#clip0_255_2024)">
<path d="M59.9437 32.1831C59.9437 18.2438 48.2905 6.94369 33.9155 6.94369C19.5405 6.94369 7.88733 18.2438 7.88733 32.1831C7.88733 44.7809 17.4055 55.2225 29.8486 57.116V39.4789H23.2399V32.1831H29.8486V26.6226C29.8486 20.2969 33.7344 16.8028 39.6798 16.8028C42.5275 16.8028 45.5062 17.2958 45.5062 17.2958V23.5071H42.2241C38.9907 23.5071 37.9824 25.4526 37.9824 27.4486V32.1831H45.2012L44.0472 39.4789H37.9824V57.116C50.4255 55.2225 59.9437 44.7809 59.9437 32.1831Z" fill="#1877F2"/>
<path d="M44.0472 39.4789L45.2011 32.1831H37.9824V27.4486C37.9824 25.4526 38.9907 23.507 42.2241 23.507H45.5062V17.2958C45.5062 17.2958 42.5275 16.8028 39.6798 16.8028C33.7344 16.8028 29.8486 20.2969 29.8486 26.6225V32.1831H23.2399V39.4789H29.8486V57.1159C31.1737 57.3175 32.5319 57.4225 33.9155 57.4225C35.299 57.4225 36.6572 57.3175 37.9824 57.1159V39.4789H44.0472Z" fill="white"/>
</g>
<defs>
<clipPath id="clip0_255_2024">
<rect width="28.3944" height="44.169" fill="white" transform="translate(20.507 13.2535)"/>
</clipPath>
</defs>
</svg>
