<svg width="237" height="45" viewBox="0 0 237 45" fill="none" xmlns="http://www.w3.org/2000/svg">
<path opacity="0.5" d="M22.75 39.9102C32.2769 39.9102 40 32.1871 40 22.6602C40 13.1332 32.2769 5.41016 22.75 5.41016C13.2231 5.41016 5.5 13.1332 5.5 22.6602C5.5 32.1871 13.2231 39.9102 22.75 39.9102Z" stroke="#A5B5D4"/>
<g clip-path="url(#clip0_1289_4989)">
<path d="M29.4525 17.4113H27.0617L25.8861 15.7586C25.8231 15.6701 25.7378 15.5975 25.6378 15.5473C25.5377 15.4971 25.426 15.4708 25.3125 15.4707H19.7925C19.679 15.4708 19.5673 15.4971 19.4673 15.5473C19.3672 15.5975 19.2819 15.6701 19.219 15.7586L18.0425 17.4113H15.6525C15.1035 17.4113 14.577 17.6158 14.1888 17.9797C13.8006 18.3437 13.5825 18.8373 13.5825 19.352V28.4082C13.5825 28.9229 13.8006 29.4165 14.1888 29.7804C14.577 30.1444 15.1035 30.3488 15.6525 30.3488H29.4525C30.0015 30.3488 30.528 30.1444 30.9162 29.7804C31.3044 29.4165 31.5225 28.9229 31.5225 28.4082V19.352C31.5225 18.8373 31.3044 18.3437 30.9162 17.9797C30.528 17.6158 30.0015 17.4113 29.4525 17.4113ZM25.6575 23.5566C25.6575 24.1324 25.4754 24.6952 25.1342 25.1739C24.7931 25.6526 24.3081 26.0257 23.7408 26.246C23.1734 26.4663 22.5491 26.524 21.9468 26.4116C21.3445 26.2993 20.7912 26.0221 20.357 25.615C19.9227 25.2079 19.627 24.6892 19.5072 24.1245C19.3874 23.5599 19.4489 22.9746 19.6839 22.4427C19.9189 21.9108 20.3169 21.4561 20.8275 21.1363C21.3381 20.8164 21.9384 20.6457 22.5525 20.6457C23.376 20.6457 24.1658 20.9524 24.7481 21.4983C25.3304 22.0442 25.6575 22.7846 25.6575 23.5566Z" fill="#586580"/>
</g>
<path opacity="0.5" d="M70.75 39.9102C80.2769 39.9102 88 32.1871 88 22.6602C88 13.1332 80.2769 5.41016 70.75 5.41016C61.2231 5.41016 53.5 13.1332 53.5 22.6602C53.5 32.1871 61.2231 39.9102 70.75 39.9102Z" stroke="#A5B5D4"/>
<g clip-path="url(#clip1_1289_4989)">
<path d="M71.7376 24.5054L71.384 24.859L71.7376 24.5054C71.4094 24.1772 70.9643 23.9928 70.5002 23.9928C70.036 23.9928 69.5909 24.1772 69.2627 24.5054L69.6163 24.859L69.2627 24.5054C68.9345 24.8336 68.7502 25.2787 68.7502 25.7428C68.7502 26.207 68.9345 26.6521 69.2627 26.9803C69.5909 27.3085 70.036 27.4928 70.5002 27.4928C70.9643 27.4928 71.4094 27.3085 71.7376 26.9803C72.0658 26.6521 72.2502 26.207 72.2502 25.7428C72.2502 25.2787 72.0658 24.8336 71.7376 24.5054ZM68.7913 24.034C69.2445 23.5808 69.8592 23.3262 70.5002 23.3262C71.1411 23.3262 71.7558 23.5808 72.209 24.034C72.6622 24.4872 72.9168 25.1019 72.9168 25.7428C72.9168 26.3838 72.6622 26.9985 72.209 27.4517C71.7558 27.9049 71.1411 28.1595 70.5002 28.1595C69.8592 28.1595 69.2445 27.9049 68.7913 27.4517C68.3381 26.9985 68.0835 26.3838 68.0835 25.7428C68.0835 25.1019 68.3381 24.4872 68.7913 24.034Z" fill="#586580" stroke="#586580"/>
<path d="M75.105 16.6732L72.4558 12.959L62.715 20.7407L62.175 20.7348V20.7432H61.75V30.7432H79.25V20.7432H78.4483L76.8533 16.0773L75.105 16.6732ZM76.6875 20.7432H68.3308L74.555 18.6215L75.8233 18.2157L76.6875 20.7432ZM73.4583 17.2348L67.0333 19.4248L72.1217 15.3598L73.4583 17.2348ZM63.4167 27.5507V23.934C63.7682 23.8094 64.0876 23.6079 64.3514 23.3442C64.6152 23.0806 64.8169 22.7613 64.9417 22.4098H76.0583C76.1831 22.7615 76.3847 23.0808 76.6485 23.3446C76.9123 23.6085 77.2317 23.8101 77.5833 23.9348V27.5515C77.2317 27.6762 76.9123 27.8778 76.6485 28.1417C76.3847 28.4055 76.1831 28.7248 76.0583 29.0765H64.9433C64.8185 28.7246 64.6166 28.4049 64.3525 28.141C64.0884 27.877 63.7687 27.6753 63.4167 27.5507Z" fill="#586580"/>
</g>
<path opacity="0.5" d="M118.75 39.9102C128.277 39.9102 136 32.1871 136 22.6602C136 13.1332 128.277 5.41016 118.75 5.41016C109.223 5.41016 101.5 13.1332 101.5 22.6602C101.5 32.1871 109.223 39.9102 118.75 39.9102Z" stroke="#A5B5D4"/>
<path d="M118.5 12.4863L118.955 12.7193C120.716 13.6206 122.228 14.9415 123.357 16.5653C124.298 16.1182 125.294 15.7965 126.319 15.6083L127.5 15.3903V23.4103C127.5 25.7973 126.552 28.0865 124.864 29.7743C123.176 31.4621 120.887 32.4103 118.5 32.4103C116.113 32.4103 113.824 31.4621 112.136 29.7743C110.448 28.0865 109.5 25.7973 109.5 23.4103V15.3903L110.68 15.6083C111.705 15.7964 112.701 16.1181 113.643 16.5653C114.772 14.9415 116.284 13.6206 118.045 12.7193L118.5 12.4863ZM115.378 17.5753C116.609 18.4381 117.668 19.5234 118.5 20.7753C119.332 19.5235 120.391 18.4382 121.622 17.5753C120.793 16.4228 119.729 15.459 118.5 14.7473C117.271 15.459 116.207 16.4228 115.378 17.5753ZM117.399 22.8443C116.517 21.1305 115.16 19.7066 113.491 18.7423C112.861 18.3787 112.194 18.0853 111.5 17.8673V23.4103C111.5 26.7003 113.77 29.4603 116.829 30.2103C116.61 29.2931 116.5 28.3533 116.5 27.4103C116.5 25.7933 116.819 24.2513 117.399 22.8443ZM118.954 30.3953C120.728 30.28 122.392 29.494 123.608 28.1967C124.823 26.8994 125.5 25.1882 125.5 23.4103V17.8673C123.469 18.5054 121.695 19.7751 120.436 21.4915C119.177 23.208 118.499 25.2816 118.5 27.4103C118.5 28.4513 118.659 29.4543 118.953 30.3953" fill="#586580"/>
<path opacity="0.5" d="M166.75 39.9102C176.277 39.9102 184 32.1871 184 22.6602C184 13.1332 176.277 5.41016 166.75 5.41016C157.223 5.41016 149.5 13.1332 149.5 22.6602C149.5 32.1871 157.223 39.9102 166.75 39.9102Z" stroke="#A5B5D4"/>
<path d="M166.75 18.9805V30.9405M158.47 19.9005C158.47 19.6565 158.567 19.4225 158.739 19.2499C158.912 19.0774 159.146 18.9805 159.39 18.9805H174.11C174.354 18.9805 174.588 19.0774 174.76 19.2499C174.933 19.4225 175.03 19.6565 175.03 19.9005V21.7405C175.03 21.9845 174.933 22.2185 174.76 22.391C174.588 22.5635 174.354 22.6605 174.11 22.6605H159.39C159.146 22.6605 158.912 22.5635 158.739 22.391C158.567 22.2185 158.47 21.9845 158.47 21.7405V19.9005Z" stroke="#586580" stroke-width="1.63556" stroke-linecap="round" stroke-linejoin="round"/>
<path d="M173.19 22.6613V29.1013C173.19 29.5893 172.996 30.0573 172.651 30.4023C172.306 30.7474 171.838 30.9413 171.35 30.9413H162.15C161.662 30.9413 161.194 30.7474 160.848 30.4023C160.503 30.0573 160.31 29.5893 160.31 29.1013V22.6613M162.61 18.9813C162 18.9813 161.415 18.7389 160.983 18.3076C160.552 17.8763 160.31 17.2913 160.31 16.6813C160.31 16.0713 160.552 15.4862 160.983 15.0549C161.415 14.6236 162 14.3813 162.61 14.3813C163.497 14.3658 164.367 14.7964 165.105 15.617C165.844 16.4375 166.417 17.6099 166.75 18.9813C167.082 17.6099 167.655 16.4375 168.394 15.617C169.132 14.7964 170.002 14.3658 170.89 14.3813C171.5 14.3813 172.085 14.6236 172.516 15.0549C172.947 15.4862 173.19 16.0713 173.19 16.6813C173.19 17.2913 172.947 17.8763 172.516 18.3076C172.085 18.7389 171.5 18.9813 170.89 18.9813" stroke="#586580" stroke-width="1.63556" stroke-linecap="round" stroke-linejoin="round"/>
<path opacity="0.5" d="M214.75 39.9102C224.277 39.9102 232 32.1871 232 22.6602C232 13.1332 224.277 5.41016 214.75 5.41016C205.223 5.41016 197.5 13.1332 197.5 22.6602C197.5 32.1871 205.223 39.9102 214.75 39.9102Z" stroke="#A5B5D4"/>
<path d="M215.313 14.6792C216.396 13.8992 217.653 13.5092 219.072 13.5092C219.852 13.5092 220.708 13.7151 221.639 14.1484C222.571 14.5709 223.308 15.0692 223.849 15.6434C224.965 17.0301 225.431 18.6442 225.268 20.4859C225.095 22.3276 224.488 23.7684 223.438 24.7867L215.215 33.0092C215.009 33.2151 214.749 33.3126 214.446 33.3126C214.143 33.3126 213.893 33.2151 213.688 33.0092C213.587 32.9106 213.509 32.7923 213.457 32.6618C213.404 32.5313 213.38 32.3914 213.384 32.2509C213.384 31.9476 213.482 31.6876 213.688 31.4817L218.66 26.5092C218.931 26.2709 218.931 26.0217 218.66 25.7509C218.389 25.4801 218.14 25.4801 217.902 25.7509L212.929 30.7234C212.829 30.8244 212.709 30.9035 212.576 30.9557C212.444 31.0079 212.302 31.0321 212.16 31.0267C211.857 31.0267 211.608 30.9292 211.402 30.7234C211.302 30.6248 211.223 30.5065 211.171 30.376C211.118 30.2455 211.094 30.1056 211.098 29.9651C211.098 29.6617 211.196 29.4017 211.402 29.1959L216.374 24.2234C216.667 23.9526 216.667 23.6817 216.374 23.4109C216.125 23.1401 215.887 23.1401 215.616 23.4109L210.643 28.4376C210.542 28.537 210.422 28.6151 210.29 28.6672C210.157 28.7193 210.016 28.7444 209.874 28.7409C209.571 28.7409 209.311 28.6434 209.083 28.4376C208.867 28.2317 208.758 27.9826 208.758 27.6792C208.758 27.3759 208.878 27.1051 209.116 26.8667L214.099 21.8834C214.37 21.6126 214.37 21.3634 214.099 21.1251C213.828 20.8867 213.568 20.8867 213.33 21.1251L208.303 26.1192C208.065 26.3359 207.816 26.4551 207.545 26.4551C207.242 26.4551 206.982 26.3467 206.787 26.1192C206.581 25.9026 206.473 25.6426 206.473 25.3392C206.473 25.0359 206.581 24.7867 206.787 24.5809C210.102 21.2442 212.149 19.2292 212.929 18.4817L216.786 22.2951C217.208 22.6959 217.696 22.9017 218.292 22.9017C219.05 22.9017 219.646 22.5984 220.09 21.9917C220.393 21.5476 220.502 21.0601 220.415 20.5184C220.328 19.9767 220.101 19.5217 219.733 19.1426L215.313 14.6792ZM217.544 21.5367L212.929 16.9109L205.259 24.5809C204.349 23.6601 203.829 22.2517 203.71 20.3342C203.591 18.4276 204.111 16.7701 205.259 15.3834C206.548 14.1051 208.087 13.4551 209.874 13.4551C211.673 13.4551 213.2 14.1051 214.446 15.3834L219.072 20.0092C219.278 20.2151 219.375 20.4642 219.375 20.7676C219.375 21.0709 219.278 21.3309 219.072 21.5367C218.866 21.7317 218.617 21.8401 218.292 21.8401C217.999 21.8401 217.75 21.7317 217.544 21.5367Z" fill="#586580"/>
<defs>
<clipPath id="clip0_1289_4989">
<rect width="18.9257" height="16.56" fill="white" transform="translate(13.0898 14.3809)"/>
</clipPath>
<clipPath id="clip1_1289_4989">
<rect width="20" height="20" fill="white" transform="translate(60.5 12.4102)"/>
</clipPath>
</defs>
</svg>
