<svg width="24" height="25" viewBox="0 0 24 25" fill="none" xmlns="http://www.w3.org/2000/svg">
<path opacity="0.5" d="M12.1357 22.3504C17.3322 22.3504 21.5447 18.1378 21.5447 12.9413C21.5447 7.74482 17.3322 3.53223 12.1357 3.53223C6.93916 3.53223 2.72656 7.74482 2.72656 12.9413C2.72656 18.1378 6.93916 22.3504 12.1357 22.3504Z" stroke="#A5B5D4" />
<path d="M12.4432 8.58765C13.0341 8.16219 13.7196 7.94947 14.4937 7.94947C14.9191 7.94947 15.3859 8.06174 15.8941 8.2981C16.4023 8.52856 16.8041 8.80038 17.0996 9.11356C17.7082 9.86992 17.9623 10.7504 17.8737 11.7549C17.7791 12.7595 17.4482 13.5454 16.875 14.1008L12.39 18.5858C12.2777 18.6981 12.1359 18.7513 11.9705 18.7513C11.805 18.7513 11.6691 18.6981 11.5568 18.5858C11.5022 18.532 11.4593 18.4675 11.4308 18.3963C11.4023 18.3251 11.3889 18.2488 11.3914 18.1722C11.3914 18.0067 11.4446 17.8649 11.5568 17.7527L14.2691 15.0404C14.4168 14.9104 14.4168 14.7745 14.2691 14.6267C14.1214 14.479 13.9855 14.479 13.8555 14.6267L11.1432 17.339C11.0885 17.3941 11.023 17.4372 10.9508 17.4657C10.8786 17.4942 10.8012 17.5074 10.7237 17.5045C10.5582 17.5045 10.4223 17.4513 10.31 17.339C10.2554 17.2852 10.2125 17.2207 10.184 17.1495C10.1555 17.0783 10.1421 17.002 10.1446 16.9254C10.1446 16.7599 10.1977 16.6181 10.31 16.5058L13.0223 13.7936C13.1818 13.6458 13.1818 13.4981 13.0223 13.3504C12.8864 13.2026 12.7564 13.2026 12.6087 13.3504L9.89638 16.0922C9.84107 16.1464 9.77544 16.189 9.70338 16.2174C9.63131 16.2459 9.55428 16.2595 9.47684 16.2577C9.31138 16.2577 9.16956 16.2045 9.04547 16.0922C8.92729 15.9799 8.8682 15.844 8.8682 15.6786C8.8682 15.5131 8.9332 15.3654 9.0632 15.2354L11.7814 12.5172C11.9291 12.3695 11.9291 12.2336 11.7814 12.1036C11.6337 11.9736 11.4918 11.9736 11.3618 12.1036L8.62002 14.8277C8.49002 14.9458 8.35411 15.0108 8.20638 15.0108C8.04093 15.0108 7.89911 14.9517 7.79274 14.8277C7.68047 14.7095 7.62138 14.5676 7.62138 14.4022C7.62138 14.2367 7.68047 14.1008 7.79274 13.9886C9.60093 12.1686 10.7177 11.0695 11.1432 10.6617L13.2468 12.7417C13.4773 12.9604 13.7432 13.0726 14.0682 13.0726C14.4818 13.0726 14.8068 12.9072 15.0491 12.5763C15.2146 12.334 15.2737 12.0681 15.2264 11.7726C15.1791 11.4772 15.055 11.229 14.8541 11.0222L12.4432 8.58765ZM13.6605 12.3281L11.1432 9.80492L6.95956 13.9886C6.4632 13.4863 6.17956 12.7181 6.11456 11.6722C6.04956 10.6322 6.3332 9.7281 6.95956 8.97174C7.66274 8.27447 8.50184 7.91992 9.47684 7.91992C10.4577 7.91992 11.2909 8.27447 11.9705 8.97174L14.4937 11.4949C14.6059 11.6072 14.6591 11.7431 14.6591 11.9086C14.6591 12.074 14.6059 12.2158 14.4937 12.3281C14.3814 12.4345 14.2455 12.4936 14.0682 12.4936C13.9087 12.4936 13.7727 12.4345 13.6605 12.3281Z" fill="#586580" />
</svg>