<svg width="35" height="30" viewBox="0 0 35 30" fill="none" xmlns="http://www.w3.org/2000/svg">
<path d="M34.7266 4.29558C33.4509 4.86082 32.0806 5.24274 30.6401 5.41537C32.1265 4.52593 33.2385 3.12608 33.7687 1.477C32.3722 2.30651 30.8438 2.89041 29.2498 3.20328C28.178 2.05884 26.7583 1.30029 25.2111 1.04539C23.664 0.79049 22.076 1.05351 20.6937 1.79361C19.3113 2.53372 18.212 3.7095 17.5663 5.1384C16.9207 6.5673 16.7649 8.16941 17.1231 9.69587C14.2934 9.55383 11.5251 8.81837 8.99802 7.53723C6.47093 6.25598 4.24147 4.45776 2.45433 2.25918C1.84326 3.31328 1.49189 4.53541 1.49189 5.837C1.4912 7.00872 1.77975 8.16251 2.33192 9.19598C2.8841 10.2295 3.68282 11.1106 4.65724 11.7614C3.52719 11.7254 2.42205 11.4201 1.43384 10.8707V10.9623C1.43372 12.6057 2.00219 14.1985 3.04276 15.4706C4.08335 16.7425 5.53195 17.6153 7.14277 17.9409C6.09446 18.2246 4.99538 18.2663 3.92854 18.063C4.38302 19.4771 5.26831 20.7136 6.46046 21.5995C7.65263 22.4854 9.09197 22.9763 10.577 23.0035C8.05608 24.9825 4.94275 26.0559 1.73784 26.0512C1.17013 26.0514 0.602899 26.0182 0.0390625 25.952C3.29223 28.0437 7.07914 29.1537 10.9466 29.1494C24.0389 29.1494 31.196 18.3059 31.196 8.90149C31.196 8.59593 31.1885 8.28739 31.1747 7.98183C32.5669 6.97508 33.7686 5.72837 34.7235 4.30015L34.7266 4.29558Z" fill="#B2BEFF"/>
</svg>
