<svg width="70" height="70" viewBox="0 0 70 70" fill="none" xmlns="http://www.w3.org/2000/svg">
<path d="M35.0986 62.7606C50.127 62.7606 62.3099 50.5777 62.3099 35.5493C62.3099 20.521 50.127 8.33807 35.0986 8.33807C20.0702 8.33807 7.88733 20.521 7.88733 35.5493C7.88733 50.5777 20.0702 62.7606 35.0986 62.7606Z" fill="#33DA51"/>
<path fill-rule="evenodd" clip-rule="evenodd" d="M46.3213 23.6438C43.3489 20.6715 39.3934 19.0302 35.1807 19.0302C26.4981 19.0302 19.4417 26.0943 19.4341 34.7692C19.4341 37.5449 20.1602 40.2525 21.5367 42.635L19.3055 50.7956L27.6553 48.6099C29.9545 49.8654 32.5411 50.5234 35.1807 50.5234H35.1882C43.8632 50.5234 50.9272 43.4593 50.9348 34.7844C50.9348 30.5717 49.2936 26.6161 46.3213 23.6438ZM35.1882 47.8611C32.8361 47.8611 30.5293 47.2258 28.5251 46.0384L28.0486 45.7586L23.0947 47.0594L24.4183 42.2341L24.1082 41.7425C22.7997 39.6626 22.1039 37.25 22.1039 34.7768C22.1039 27.5615 27.9805 21.6925 35.1958 21.6925C38.69 21.6925 41.98 23.0539 44.4456 25.527C46.9187 28.0002 48.2801 31.2902 48.2726 34.7844C48.265 41.9921 42.396 47.8611 35.1882 47.8611ZM42.3657 38.0668C41.9724 37.8701 40.0362 36.9172 39.6808 36.7886C39.3177 36.66 39.0606 36.592 38.7959 36.9853C38.5312 37.3785 37.7824 38.2634 37.548 38.5281C37.3211 38.7929 37.0866 38.8231 36.6933 38.6265C36.3 38.4298 35.0294 38.0138 33.5319 36.6752C32.3596 35.6314 31.573 34.3457 31.3461 33.9524C31.1192 33.5591 31.3234 33.3474 31.5201 33.1507C31.694 32.9768 31.9134 32.6894 32.11 32.4625C32.3067 32.2356 32.3747 32.0692 32.5033 31.8045C32.6319 31.5398 32.5714 31.3129 32.4731 31.1162C32.3747 30.9196 31.5882 28.9834 31.2629 28.1968C30.9453 27.4329 30.6201 27.5313 30.378 27.5237C30.1512 27.5086 29.8864 27.5086 29.6217 27.5086C29.357 27.5086 28.9335 27.6069 28.5704 28.0002C28.2074 28.3935 27.1939 29.3464 27.1939 31.2826C27.1939 33.2188 28.6007 35.0869 28.7973 35.3516C28.994 35.6163 31.573 39.587 35.521 41.2887C36.4589 41.6971 37.1925 41.9391 37.7673 42.1207C38.7127 42.4232 39.5673 42.3778 40.248 42.2795C41.0043 42.166 42.5775 41.3265 42.9027 40.4114C43.2279 39.4962 43.2279 38.7021 43.1296 38.5433C43.0161 38.3618 42.759 38.2634 42.3657 38.0668Z" fill="white"/>
</svg>
