<svg width="57" height="55" viewBox="0 0 57 55" fill="none" xmlns="http://www.w3.org/2000/svg">
<g clip-path="url(#clip0_1454_22714)">
<path d="M38.2598 0.875C34.7843 0.875 31.4371 1.82291 28.498 3.62499C25.5571 1.8231 22.2077 0.875 18.7309 0.875C8.39947 0.875 -0.00585938 9.28259 -0.00585938 19.617C-0.00585938 22.3884 0.432404 25.1286 1.30123 27.774C1.53266 28.4634 1.72747 28.9871 1.92133 29.4464C4.16675 34.9983 8.39064 40.329 14.4698 45.2863C15.4479 46.0897 16.5016 46.899 17.6015 47.6918L18.7359 48.5097L18.7376 48.5085C23.6297 51.882 27.6479 53.7345 27.6902 53.7538L28.5021 54.125L29.3121 53.7495C29.4898 53.6672 33.5009 51.7855 38.2611 48.5089L38.2634 48.5106L39.3997 47.6925C40.4428 46.9411 41.4943 46.1322 42.5209 45.291C48.6038 40.333 52.828 35.0022 55.0798 29.4391C55.3058 28.8737 55.5115 28.3092 55.6898 27.7667C56.5622 25.1358 57.0044 22.3938 57.0044 19.617C57.0044 9.28278 48.5955 0.875 38.2598 0.875ZM28.498 8.42879C31.705 11.2331 33.5897 15.318 33.5897 19.6159C33.5897 21.9832 33.2137 24.3126 32.4728 26.5507C32.2941 27.0864 32.1232 27.5576 31.9483 27.987C31.1161 30.0275 29.961 32.0644 28.498 34.0708C27.0387 32.0644 25.8759 30.0202 25.0362 27.9643C24.8613 27.5501 24.6943 27.0902 24.5194 26.5467C23.7823 24.3124 23.406 21.9794 23.406 19.6157C23.406 15.3142 25.2907 11.2331 28.498 8.42879ZM18.732 43.7074C18.1089 43.2323 17.5048 42.7574 16.9271 42.2861C11.3523 37.7413 7.51468 32.9308 5.50821 27.9643C5.34102 27.5728 5.17759 27.1319 4.98391 26.5507C4.24659 24.3088 3.87426 21.9757 3.87426 19.6159C3.87426 11.4232 10.5393 4.75437 18.7322 4.75437C20.9855 4.75437 23.1704 5.25594 25.1654 6.21719C21.5934 9.71691 19.5262 14.5506 19.5262 19.6159C19.5262 22.3974 19.9671 25.1371 20.8333 27.7477C21.0349 28.386 21.244 28.9522 21.4566 29.454C22.5204 32.0644 24.0366 34.6521 25.9708 37.1676C24.3825 38.9194 22.5622 40.6369 20.5331 42.2861C19.9403 42.7726 19.3361 43.2477 18.732 43.7074ZM28.494 49.8329C27.3049 49.2288 24.9107 47.9519 22.0418 46.0482C22.0418 46.0482 22.0302 46.0559 22.0037 46.0711C22.3345 45.8127 22.6649 45.5581 22.9878 45.2921C25.0172 43.6392 26.8638 41.9141 28.4978 40.1509C30.1355 41.9179 31.9785 43.6392 34.0041 45.2885C34.3156 45.5429 34.631 45.7939 34.9541 46.0484C32.0965 47.9407 29.695 49.225 28.494 49.8329ZM52.0045 26.5507C51.8523 27.0218 51.6739 27.5084 51.48 27.991C49.4812 32.9345 45.6396 37.7455 40.0649 42.2863C39.4722 42.7764 38.8679 43.2477 38.2677 43.7076C37.6448 43.2362 37.0402 42.7612 36.4551 42.2827C34.4373 40.6373 32.6172 38.9235 31.0252 37.1678C32.9595 34.6523 34.4755 32.0606 35.5432 29.4502C35.7523 28.9372 35.9539 28.3862 36.1551 27.7667C37.0252 25.141 37.4699 22.3974 37.4699 19.6159C37.4699 14.5506 35.4027 9.71691 31.8269 6.21719C33.8259 5.25594 36.007 4.75437 38.2602 4.75437C46.4568 4.75437 53.1256 11.4232 53.1256 19.6159C53.1252 21.9794 52.7491 24.3088 52.0045 26.5507Z" fill="white"/>
</g>
<defs>
<clipPath id="clip0_1454_22714">
<rect width="57.0103" height="53.25" fill="white" transform="translate(-0.00585938 0.875)"/>
</clipPath>
</defs>
</svg>
