<svg width="70" height="70" viewBox="0 0 70 70" fill="none" xmlns="http://www.w3.org/2000/svg">
<path d="M35.0986 62.7183C50.127 62.7183 62.3099 50.5354 62.3099 35.507C62.3099 20.4787 50.127 8.29578 35.0986 8.29578C20.0702 8.29578 7.88733 20.4787 7.88733 35.507C7.88733 50.5354 20.0702 62.7183 35.0986 62.7183Z" fill="black"/>
<g clip-path="url(#clip0_255_2014)">
<path d="M43.7635 19.338H48.5783L38.0619 32.0594L50.4789 49.3099H40.7227L33.1204 38.853L24.3778 49.3099H19.5631L30.8397 35.7226L18.9296 19.338H28.9392L35.8445 28.929L43.7635 19.338ZM42.053 46.2461H44.7138L27.4821 22.202H24.5679L42.053 46.2461Z" fill="white"/>
</g>
<defs>
<clipPath id="clip0_255_2014">
<rect width="31.5493" height="29.9718" fill="white" transform="translate(18.9296 19.338)"/>
</clipPath>
</defs>
</svg>
