   <svg width="36" height="36" viewBox="0 0 36 36" fill="none" xmlns="http://www.w3.org/2000/svg">
        <path d="M10.8657 0.719238C5.28873 0.719238 0.750854 5.25979 0.750854 10.8382V25.2904C0.750854 30.8682 5.29141 35.4067 10.8699 35.4067H25.3221C30.8999 35.4067 35.4384 30.8662 35.4384 25.2877V10.8342C35.4384 5.25711 30.8978 0.719238 25.3194 0.719238H10.8657ZM28.5008 6.26923C29.2667 6.26923 29.8884 6.89083 29.8884 7.65673C29.8884 8.42264 29.2667 9.04424 28.5008 9.04424C27.7349 9.04424 27.1134 8.42264 27.1134 7.65673C27.1134 6.89083 27.7349 6.26923 28.5008 6.26923ZM18.0946 9.04424C23.0688 9.04424 27.1134 13.0889 27.1134 18.063C27.1134 23.0372 23.0681 27.0817 18.0946 27.0817C13.1204 27.0817 9.07585 23.0364 9.07585 18.063C9.07585 13.0895 13.1204 9.04424 18.0946 9.04424ZM18.0946 11.8193C14.6459 11.8193 11.8508 14.6144 11.8508 18.063C11.8508 21.5117 14.6459 24.3068 18.0946 24.3068C21.5432 24.3068 24.3383 21.5117 24.3383 18.063C24.3383 14.6144 21.5432 11.8193 18.0946 11.8193Z" fill="white"/>
    </svg>