<svg width="36" height="36" viewBox="0 0 36 36" fill="none" xmlns="http://www.w3.org/2000/svg">
<path fill-rule="evenodd" clip-rule="evenodd" d="M0.813355 3.61723C0.813355 2.84863 1.11867 2.11152 1.66215 1.56804C2.20563 1.02456 2.94275 0.719242 3.71134 0.719242H32.5998C32.9806 0.718618 33.3579 0.793127 33.71 0.938502C34.062 1.08389 34.382 1.29727 34.6514 1.56647C34.9209 1.83565 35.1346 2.15534 35.2804 2.50724C35.4261 2.85914 35.501 3.23633 35.5009 3.61723V32.5056C35.5013 32.8866 35.4265 33.2638 35.2809 33.616C35.1355 33.968 34.9219 34.2879 34.6527 34.5573C34.3833 34.8269 34.0635 35.0406 33.7116 35.1863C33.3596 35.3321 32.9822 35.407 32.6013 35.4067H3.71134C3.33064 35.4067 2.95367 35.3317 2.60197 35.186C2.25026 35.0403 1.93073 34.8266 1.66159 34.5573C1.39248 34.2881 1.17904 33.9685 1.0335 33.6166C0.887955 33.2649 0.813147 32.8879 0.813355 32.5072V3.61723ZM14.5432 13.9446H19.2404V16.3033C19.9183 14.9474 21.6527 13.727 24.2589 13.727C29.2555 13.727 30.4396 16.428 30.4396 21.3835V30.5632H25.3832V22.5125C25.3832 19.6902 24.7052 18.0976 22.9834 18.0976C20.5947 18.0976 19.6013 19.8147 19.6013 22.5125V30.5632H14.5432V13.9446ZM5.87143 30.3471H10.9295V13.727H5.87143V30.3455V30.3471ZM11.6532 8.30635C11.6628 8.73942 11.5857 9.17004 11.4266 9.57293C11.2674 9.97582 11.0294 10.3429 10.7265 10.6525C10.4235 10.9622 10.0618 11.2082 9.66254 11.3762C9.26326 11.5442 8.83443 11.6307 8.40125 11.6307C7.96807 11.6307 7.53925 11.5442 7.13995 11.3762C6.74066 11.2082 6.37894 10.9622 6.07603 10.6525C5.77312 10.3429 5.5351 9.97582 5.37596 9.57293C5.21682 9.17004 5.13975 8.73942 5.1493 8.30635C5.16802 7.45628 5.51885 6.64732 6.12667 6.05273C6.7345 5.45816 7.55097 5.12521 8.40125 5.12521C9.25152 5.12521 10.068 5.45816 10.6758 6.05273C11.2836 6.64732 11.6344 7.45628 11.6532 8.30635Z" fill="white"/>
</svg>