<svg width="42" height="42" viewBox="0 0 42 42" fill="none" xmlns="http://www.w3.org/2000/svg">
<path d="M38.5322 10.5324C37.2565 11.0976 35.8861 11.4796 34.4456 11.6522C35.932 10.7627 37.0441 9.3629 37.5743 7.71382C36.1777 8.54333 34.6493 9.12722 33.0554 9.4401C31.9835 8.29566 30.5638 7.53711 29.0167 7.28221C27.4695 7.02731 25.8815 7.29032 24.4992 8.03043C23.1169 8.77054 22.0176 9.94631 21.3719 11.3752C20.7263 12.8041 20.5705 14.4062 20.9287 15.9327C18.099 15.7906 15.3306 15.0552 12.8036 13.774C10.2765 12.4928 8.04701 10.6946 6.25987 8.49599C5.6488 9.55009 5.29743 10.7722 5.29743 12.0738C5.29674 13.2455 5.5853 14.3993 6.13747 15.4328C6.68965 16.4663 7.48837 17.3474 8.46278 17.9982C7.33273 17.9622 6.2276 17.6569 5.23938 17.1076V17.1991C5.23926 18.8425 5.80773 20.4353 6.8483 21.7074C7.88889 22.9793 9.33749 23.8521 10.9483 24.1777C9.9 24.4614 8.80092 24.5031 7.73408 24.2998C8.18856 25.7139 9.07385 26.9504 10.266 27.8363C11.4582 28.7222 12.8975 29.2131 14.3825 29.2403C11.8616 31.2193 8.74829 32.2927 5.54339 32.2881C4.97567 32.2882 4.40844 32.255 3.8446 32.1888C7.09777 34.2805 10.8847 35.3906 14.7522 35.3863C27.8444 35.3863 35.0016 24.5427 35.0016 15.1383C35.0016 14.8327 34.994 14.5242 34.9802 14.2186C36.3725 13.2119 37.5741 11.9652 38.529 10.537L38.5322 10.5324Z" fill="white"/>
</svg>